<svg width="1410" height="828" viewBox="0 0 1410 828" fill="none" xmlns="http://www.w3.org/2000/svg">
<path d="M437.908 7.58691H377.337V196.385H8.94385V244.082" stroke="#F84F0A" stroke-width="0.993675"/>
<path d="M443.369 252.528H8.44736L7.45435 757.315H178.742H350.03H627.069L627.069 539.7H842.544V471.136H1256.61V450.269H1376.76V275.382H978.582V172.04H823.181H725.374H647.922L647.425 90.0617L647.922 7.08984H443.369V252.528Z" fill="white"/>
<path d="M725.374 172.04H647.922L647.425 90.0617L647.922 7.08984H443.369V252.528H8.44736L7.45435 757.315H178.742H350.03H627.069L627.069 539.7H842.544V471.136H1256.61V450.269H1376.76V275.382H978.582V172.04H823.181M725.374 172.04V157.632M725.374 172.04H823.181M823.181 172.04V157.632" stroke="#F84F0A" stroke-width="2.98103"/>
<path d="M61.6795 442.7L39.5964 493.494H8.94385L105.186 274.486H137.487L233.4 493.494H201.758L179.675 442.7H61.6795ZM167.81 415.324L120.677 306.81L73.545 415.324H167.81Z" fill="#F84F0A"/>
<path d="M330.811 471.395C349.708 471.395 363.112 464.579 371.022 450.946H401.675C396.401 465.458 387.392 476.893 374.648 485.248C362.123 493.604 347.511 497.782 330.811 497.782C307.959 497.782 288.953 490.196 273.791 475.024C258.849 459.851 251.378 440.611 251.378 417.303C251.378 394.435 258.63 375.415 273.132 360.242C287.854 345.07 306.531 337.484 329.163 337.484C350.477 337.484 368.166 345.07 382.229 360.242C396.511 375.195 403.652 393.665 403.652 415.654C403.652 422.031 403.433 426.209 402.993 428.188H280.713C282.47 440.721 287.964 451.056 297.192 459.192C306.641 467.327 317.847 471.395 330.811 471.395ZM329.163 363.871C316.199 363.871 305.323 367.499 296.533 374.755C287.964 381.791 282.8 391.356 281.042 403.45H373.989C372.231 391.356 367.397 381.791 359.486 374.755C351.576 367.499 341.468 363.871 329.163 363.871Z" fill="#F84F0A"/>
<path d="M446.343 341.772H474.689V363.211C485.236 348.039 503.034 340.453 528.083 340.453H536.982V367.499H528.083C511.603 367.499 498.529 372.336 488.861 382.011C479.413 391.686 474.689 404.55 474.689 420.601V493.494H446.343V341.772Z" fill="#F84F0A"/>
<path d="M639.487 337.484C662.12 337.484 681.017 345.18 696.178 360.572C711.34 375.744 718.92 394.765 718.92 417.633C718.92 440.501 711.34 459.631 696.178 475.024C681.017 490.196 662.12 497.782 639.487 497.782C616.635 497.782 597.628 490.196 582.467 475.024C567.525 459.631 560.054 440.501 560.054 417.633C560.054 394.765 567.525 375.744 582.467 360.572C597.628 345.18 616.635 337.484 639.487 337.484ZM602.902 455.893C612.57 466.228 624.765 471.395 639.487 471.395C654.209 471.395 666.404 466.228 676.073 455.893C685.741 445.559 690.575 432.805 690.575 417.633C690.575 402.241 685.741 389.487 676.073 379.373C666.624 369.038 654.429 363.871 639.487 363.871C624.546 363.871 612.241 369.038 602.572 379.373C593.124 389.487 588.4 402.241 588.4 417.633C588.4 432.805 593.234 445.559 602.902 455.893Z" fill="#F84F0A"/>
<path d="M790.124 560.78H761.778V341.772H790.124V358.263C802.648 344.41 819.678 337.484 841.211 337.484C865.162 337.484 883.949 345.29 897.573 360.902C911.196 376.514 918.008 395.424 918.008 417.633C918.008 439.842 911.196 458.752 897.573 474.364C883.949 489.976 865.162 497.782 841.211 497.782C819.678 497.782 802.648 490.855 790.124 477.003V560.78ZM803.967 378.053C794.079 387.288 789.135 400.482 789.135 417.633C789.135 434.784 794.079 448.087 803.967 457.542C814.075 466.778 826.16 471.395 840.223 471.395C854.505 471.395 866.261 466.228 875.49 455.893C884.938 445.339 889.662 432.585 889.662 417.633C889.662 402.681 884.938 390.037 875.49 379.702C866.261 369.148 854.505 363.871 840.223 363.871C826.16 363.871 814.075 368.598 803.967 378.053Z" fill="#F84F0A"/>
<path d="M1030.24 337.484C1052.87 337.484 1071.77 345.18 1086.93 360.572C1102.09 375.744 1109.67 394.765 1109.67 417.633C1109.67 440.501 1102.09 459.631 1086.93 475.024C1071.77 490.196 1052.87 497.782 1030.24 497.782C1007.39 497.782 988.382 490.196 973.22 475.024C958.279 459.631 950.808 440.501 950.808 417.633C950.808 394.765 958.279 375.744 973.22 360.572C988.382 345.18 1007.39 337.484 1030.24 337.484ZM993.655 455.893C1003.32 466.228 1015.52 471.395 1030.24 471.395C1044.96 471.395 1057.16 466.228 1066.83 455.893C1076.49 445.559 1081.33 432.805 1081.33 417.633C1081.33 402.241 1076.49 389.487 1066.83 379.373C1057.38 369.038 1045.18 363.871 1030.24 363.871C1015.3 363.871 1002.99 369.038 993.326 379.373C983.877 389.487 979.153 402.241 979.153 417.633C979.153 432.805 983.987 445.559 993.655 455.893Z" fill="#F84F0A"/>
<path d="M1152.53 341.772H1180.88V363.211C1191.42 348.039 1209.22 340.453 1234.27 340.453H1243.17V367.499H1234.27C1217.79 367.499 1204.72 372.336 1195.05 382.011C1185.6 391.686 1180.88 404.55 1180.88 420.601V493.494H1152.53V341.772Z" fill="#F84F0A"/>
<path d="M1301.51 300.213H1329.85V341.772H1378.3V366.839H1329.85V438.742C1329.85 448.857 1332.05 456.333 1336.44 461.171C1340.84 466.008 1347.87 468.427 1357.54 468.427H1378.3V493.494H1354.9C1337.98 493.494 1324.8 489.426 1315.35 481.29C1306.12 472.935 1301.51 460.731 1301.51 444.679V366.839H1273.49V341.772H1301.51V300.213Z" fill="#F84F0A"/>
<path d="M70.249 756.818H41.9036V630.163H8.94385V605.096H41.9036V584.976C41.9036 568.924 46.518 556.831 55.7467 548.695C65.1952 540.339 78.3791 536.161 95.2984 536.161H118.7V561.228H97.9352C88.267 561.228 81.2356 563.647 76.841 568.485C72.4463 573.322 70.249 580.798 70.249 590.913V605.096H118.7V630.163H70.249V756.818Z" fill="#F84F0A"/>
<path d="M218.156 600.808C240.788 600.808 259.685 608.504 274.847 623.896C290.008 639.068 297.589 658.089 297.589 680.957C297.589 703.825 290.008 722.955 274.847 738.347C259.685 753.52 240.788 761.106 218.156 761.106C195.304 761.106 176.297 753.52 161.136 738.347C146.194 722.955 138.723 703.825 138.723 680.957C138.723 658.089 146.194 639.068 161.136 623.896C176.297 608.504 195.304 600.808 218.156 600.808ZM181.571 719.217C191.239 729.552 203.434 734.719 218.156 734.719C232.878 734.719 245.073 729.552 254.741 719.217C264.409 708.883 269.244 696.129 269.244 680.957C269.244 665.565 264.409 652.811 254.741 642.697C245.293 632.362 233.098 627.194 218.156 627.194C203.214 627.194 190.909 632.362 181.241 642.697C171.793 652.811 167.068 665.565 167.068 680.957C167.068 696.129 171.902 708.883 181.571 719.217Z" fill="#F84F0A"/>
<path d="M419.88 600.808C440.315 600.808 456.355 606.965 468.001 619.279C479.867 631.592 485.8 647.644 485.8 667.434V756.818H457.454V669.743C457.454 656.769 454.048 646.435 447.237 638.739C440.425 631.042 430.317 627.194 416.914 627.194C403.949 627.194 392.633 631.812 382.965 641.047C373.517 650.283 368.792 662.596 368.792 677.988V756.818H340.447V605.096H368.792V621.587C380.438 607.734 397.467 600.808 419.88 600.808Z" fill="#F84F0A"/>
<path d="M546.716 563.537H575.061V605.096H626.573V630.163H575.061V702.066C575.061 712.181 577.259 719.657 581.653 724.495C586.048 729.332 593.079 731.751 602.747 731.751H626.573V756.818H600.111C583.191 756.818 570.007 752.75 560.559 744.614C551.33 736.259 546.716 724.055 546.716 708.003V630.163H518.7V605.096H546.716V563.537Z" fill="#F84F0A"/>
<rect x="7.95081" y="758.805" width="620.608" height="68.5636" fill="#D9D9D9"/>
<rect x="726.863" y="157.632" width="95.3254" height="17.8862" fill="white"/>
<path d="M443.866 253.025L358.47 180.486" stroke="#F84F0A" stroke-width="0.993675"/>
<path d="M368.4 14.5423L384.287 0.630859" stroke="#F84F0A" stroke-width="0.993675"/>
<rect x="844.034" y="472.627" width="506.416" height="80.4877" fill="#D9D9D9"/>
<rect x="646.432" y="541.19" width="431.943" height="68.5636" fill="#D9D9D9"/>
<rect x="1263.07" y="451.76" width="150.932" height="139.115" fill="#D9D9D9"/>
<rect x="364.428" y="75.1567" width="23.8313" height="51.6711" fill="#D9D9D9"/>
<rect x="1379.25" y="404.063" width="28.7962" height="139.115" fill="#D9D9D9"/>
<path d="M1 202.347L16.8876 188.436" stroke="#F84F0A" stroke-width="0.993675"/>
</svg>
