<svg width="1376" height="1363" viewBox="0 0 1376 1363" fill="none" xmlns="http://www.w3.org/2000/svg">
<path d="M248 125V194" stroke="#F84F0A" stroke-width="3"/>
<path d="M316 125V194" stroke="#F84F0A" stroke-width="3"/>
<path d="M248 353L175 353" stroke="#F84F0A" stroke-width="3"/>
<path d="M248 413L176 413" stroke="#F84F0A" stroke-width="3"/>
<path d="M248 473L175 473" stroke="#F84F0A" stroke-width="3"/>
<path d="M249 533L175 533" stroke="#F84F0A" stroke-width="3"/>
<path d="M248 593L175 593" stroke="#F84F0A" stroke-width="3"/>
<path d="M248 653L175 653" stroke="#F84F0A" stroke-width="3"/>
<path d="M249 713L175 713" stroke="#F84F0A" stroke-width="3"/>
<path d="M248 773L175 773" stroke="#F84F0A" stroke-width="3"/>
<path d="M248 833L175 833" stroke="#F84F0A" stroke-width="3"/>
<path d="M248 893L176 893" stroke="#F84F0A" stroke-width="3"/>
<path d="M249 953L175 953" stroke="#F84F0A" stroke-width="3"/>
<path d="M249 1013L175 1013" stroke="#F84F0A" stroke-width="3"/>
<path d="M249 1073L175 1073" stroke="#F84F0A" stroke-width="3"/>
<path d="M249 1133L175.002 1132.5" stroke="#F84F0A" stroke-width="3"/>
<path d="M248 1193L175 1193" stroke="#F84F0A" stroke-width="3"/>
<path d="M384 125V194" stroke="#F84F0A" stroke-width="3"/>
<path d="M452 125V194" stroke="#F84F0A" stroke-width="3"/>
<path d="M520 125V194" stroke="#F84F0A" stroke-width="3"/>
<path d="M588 125V194" stroke="#F84F0A" stroke-width="3"/>
<path d="M656 125V194" stroke="#F84F0A" stroke-width="3"/>
<path d="M724 125V194" stroke="#F84F0A" stroke-width="3"/>
<path d="M792 125V194" stroke="#F84F0A" stroke-width="3"/>
<path d="M860 125V194" stroke="#F84F0A" stroke-width="3"/>
<path d="M928 125V194" stroke="#F84F0A" stroke-width="3"/>
<path d="M996 125V194" stroke="#F84F0A" stroke-width="3"/>
<path d="M1064 125V194" stroke="#F84F0A" stroke-width="3"/>
<path d="M1132 125V194" stroke="#F84F0A" stroke-width="3"/>
<path d="M1200 125V194" stroke="#F84F0A" stroke-width="3"/>
<path d="M1268 125V194" stroke="#F84F0A" stroke-width="3"/>
<path d="M1336 125V194" stroke="#F84F0A" stroke-width="3"/>
<path d="M341 195L314 353H248V1361H175V2H248M341 195H4L68 125H248M341 195H1132M1374 125V195H1132M1374 125L248 2M1374 125H248M248 2V125M1132 195L1154 331M1154 331L1033 411H1286L1154 331ZM936 442V411H1374V442" stroke="#F84F0A" stroke-width="3"/>
</svg>
