<svg width="593" height="717" viewBox="0 0 593 717" fill="none" xmlns="http://www.w3.org/2000/svg">
<path d="M507 2.00021L86 2L86 117L507 117L507 2.00021Z" stroke="#F84F0A" stroke-width="3" stroke-miterlimit="10"/>
<path d="M591 117L2 117L1.99998 308L591 308L591 117Z" stroke="#F84F0A" stroke-width="3" stroke-miterlimit="10"/>
<path d="M86 42V116" stroke="#F84F0A" stroke-width="3"/>
<path d="M98 2V115" stroke="#F84F0A" stroke-width="3"/>
<path d="M109 2V115" stroke="#F84F0A" stroke-width="3"/>
<path d="M121 2V115" stroke="#F84F0A" stroke-width="3"/>
<path d="M132 2V115" stroke="#F84F0A" stroke-width="3"/>
<path d="M144 2V115" stroke="#F84F0A" stroke-width="3"/>
<path d="M155 2V115" stroke="#F84F0A" stroke-width="3"/>
<path d="M167 2V115" stroke="#F84F0A" stroke-width="3"/>
<path d="M178 2V115" stroke="#F84F0A" stroke-width="3"/>
<path d="M190 2V115" stroke="#F84F0A" stroke-width="3"/>
<path d="M201 2V115" stroke="#F84F0A" stroke-width="3"/>
<path d="M235 2V115" stroke="#F84F0A" stroke-width="3"/>
<path d="M247 2V115" stroke="#F84F0A" stroke-width="3"/>
<path d="M258 2V115" stroke="#F84F0A" stroke-width="3"/>
<path d="M270 2V115" stroke="#F84F0A" stroke-width="3"/>
<path d="M212 2V115" stroke="#F84F0A" stroke-width="3"/>
<path d="M224 2V115" stroke="#F84F0A" stroke-width="3"/>
<path d="M304 2V115" stroke="#F84F0A" stroke-width="3"/>
<path d="M293 2V115" stroke="#F84F0A" stroke-width="3"/>
<path d="M281 2V115" stroke="#F84F0A" stroke-width="3"/>
<path d="M338 2V115" stroke="#F84F0A" stroke-width="3"/>
<path d="M327 2V115" stroke="#F84F0A" stroke-width="3"/>
<path d="M315 2V115" stroke="#F84F0A" stroke-width="3"/>
<path d="M373 2V115" stroke="#F84F0A" stroke-width="3"/>
<path d="M361 2V115" stroke="#F84F0A" stroke-width="3"/>
<path d="M407 2V115" stroke="#F84F0A" stroke-width="3"/>
<path d="M396 2V115" stroke="#F84F0A" stroke-width="3"/>
<path d="M384 2V115" stroke="#F84F0A" stroke-width="3"/>
<path d="M441 2V115" stroke="#F84F0A" stroke-width="3"/>
<path d="M430 2V115" stroke="#F84F0A" stroke-width="3"/>
<path d="M464 2V115" stroke="#F84F0A" stroke-width="3"/>
<path d="M487 2V115" stroke="#F84F0A" stroke-width="3"/>
<path d="M499 2V115" stroke="#F84F0A" stroke-width="3"/>
<path d="M476 2V115" stroke="#F84F0A" stroke-width="3"/>
<path d="M453 2V115" stroke="#F84F0A" stroke-width="3"/>
<path d="M419 2V115" stroke="#F84F0A" stroke-width="3"/>
<path d="M350 2V115" stroke="#F84F0A" stroke-width="3"/>
<path d="M591 573L2 573L1.99999 715L591 715L591 573Z" stroke="#F84F0A" stroke-width="3" stroke-miterlimit="10"/>
<path d="M11 573V715" stroke="#F84F0A" stroke-width="3"/>
<path d="M22 573V715" stroke="#F84F0A" stroke-width="3"/>
<path d="M33 573V715" stroke="#F84F0A" stroke-width="3"/>
<path d="M45 573V715" stroke="#F84F0A" stroke-width="3"/>
<path d="M56 573V715" stroke="#F84F0A" stroke-width="3"/>
<path d="M68 573V715" stroke="#F84F0A" stroke-width="3"/>
<path d="M79 573V715" stroke="#F84F0A" stroke-width="3"/>
<path d="M91 573V715" stroke="#F84F0A" stroke-width="3"/>
<path d="M102 573V715" stroke="#F84F0A" stroke-width="3"/>
<path d="M114 573V715" stroke="#F84F0A" stroke-width="3"/>
<path d="M125 573V715" stroke="#F84F0A" stroke-width="3"/>
<path d="M159 573V715" stroke="#F84F0A" stroke-width="3"/>
<path d="M171 573V715" stroke="#F84F0A" stroke-width="3"/>
<path d="M182 573V715" stroke="#F84F0A" stroke-width="3"/>
<path d="M194 573V715" stroke="#F84F0A" stroke-width="3"/>
<path d="M137 573V715" stroke="#F84F0A" stroke-width="3"/>
<path d="M148 573V715" stroke="#F84F0A" stroke-width="3"/>
<path d="M228 573V715" stroke="#F84F0A" stroke-width="3"/>
<path d="M217 573V715" stroke="#F84F0A" stroke-width="3"/>
<path d="M205 573V715" stroke="#F84F0A" stroke-width="3"/>
<path d="M263 573V715" stroke="#F84F0A" stroke-width="3"/>
<path d="M251 573V715" stroke="#F84F0A" stroke-width="3"/>
<path d="M240 573V715" stroke="#F84F0A" stroke-width="3"/>
<path d="M297 573V715" stroke="#F84F0A" stroke-width="3"/>
<path d="M285 573V715" stroke="#F84F0A" stroke-width="3"/>
<path d="M331 573V715" stroke="#F84F0A" stroke-width="3"/>
<path d="M320 573V715" stroke="#F84F0A" stroke-width="3"/>
<path d="M308 573V715" stroke="#F84F0A" stroke-width="3"/>
<path d="M366 573V715" stroke="#F84F0A" stroke-width="3"/>
<path d="M354 573V715" stroke="#F84F0A" stroke-width="3"/>
<path d="M388 573V715" stroke="#F84F0A" stroke-width="3"/>
<path d="M411 573V715" stroke="#F84F0A" stroke-width="3"/>
<path d="M423 573V715" stroke="#F84F0A" stroke-width="3"/>
<path d="M434 573V715" stroke="#F84F0A" stroke-width="3"/>
<path d="M446 573V715" stroke="#F84F0A" stroke-width="3"/>
<path d="M457 573V715" stroke="#F84F0A" stroke-width="3"/>
<path d="M469 573V715" stroke="#F84F0A" stroke-width="3"/>
<path d="M480 573V715" stroke="#F84F0A" stroke-width="3"/>
<path d="M492 573V715" stroke="#F84F0A" stroke-width="3"/>
<path d="M503 573V715" stroke="#F84F0A" stroke-width="3"/>
<path d="M514 573V715" stroke="#F84F0A" stroke-width="3"/>
<path d="M526 573V715" stroke="#F84F0A" stroke-width="3"/>
<path d="M537 573V715" stroke="#F84F0A" stroke-width="3"/>
<path d="M549 573V715" stroke="#F84F0A" stroke-width="3"/>
<path d="M560 573V715" stroke="#F84F0A" stroke-width="3"/>
<path d="M572 573V715" stroke="#F84F0A" stroke-width="3"/>
<path d="M583 573V715" stroke="#F84F0A" stroke-width="3"/>
<path d="M400 573V715" stroke="#F84F0A" stroke-width="3"/>
<path d="M377 573V715" stroke="#F84F0A" stroke-width="3"/>
<path d="M343 573V715" stroke="#F84F0A" stroke-width="3"/>
<path d="M274 573V715" stroke="#F84F0A" stroke-width="3"/>
</svg>
