<svg width="206" height="117" viewBox="0 0 206 117" fill="none" xmlns="http://www.w3.org/2000/svg">
<g clip-path="url(#clip0_312_96)">
<path d="M206 46.3965C206 26.0872 196.174 9.62963 177 -1.00863C197.133 -12.614 207 -28.1044 207 -48.4138C207 -68.0785 197.855 -84.2966 179 -97.8362C160.145 -111.053 135.401 -118.009 106 -118.009C76.2798 -118.009 51.8547 -111.053 33 -97.8362C14.1453 -84.2966 2.79358 -68.0369 -2 -47.4052H45C54.2676 -69.0041 75.8058 -79.681 110 -79.681C125.659 -79.681 138.454 -76.4061 149 -70.6035C159.865 -64.4784 166 -56.7124 166 -46.3966C166 -37.6925 162.391 -30.7373 156 -26.2241C149.928 -21.3886 141.546 -19.1638 131 -19.1638H78V18.1552H130C140.546 18.1552 148.928 19.6937 155 24.2069C161.072 29.0425 164 36.6839 164 45.3879C164 55.7038 159.546 63.4698 149 69.5948C138.454 75.7199 124.979 78.6724 109 78.6724C76.4037 78.6724 54.5872 68.7232 45 48.4138H0C5.75229 68.7232 17.104 85.2637 35 97.8362C52.896 110.731 77.3211 117 108 117C132.927 117 155.187 110.773 175 98.8448C195.133 86.9171 206 69.9297 206 46.3965Z" fill="#F84F0A"/>
</g>
<defs>
<clipPath id="clip0_312_96">
<rect width="206" height="117" fill="white"/>
</clipPath>
</defs>
</svg>
