<svg width="206" height="117" viewBox="0 0 206 117" fill="none" xmlns="http://www.w3.org/2000/svg">
<g clip-path="url(#clip0_312_99)">
<path d="M6.11959e-06 47C7.87992e-06 26.8642 9.8257 10.5473 29 -1.56487e-05C8.86698 -11.5062 -0.999987 -26.8642 -0.999986 -47C-0.999984 -66.4966 8.14527 -82.5762 27 -96C45.8548 -109.104 70.5994 -116 100 -116C129.72 -116 154.145 -109.104 173 -96C191.855 -82.5761 203.206 -66.4554 208 -46L161 -46C151.732 -67.4143 130.194 -78 96 -78C80.341 -78 67.5459 -74.7531 57 -69C46.1346 -62.9273 40 -55.2277 40 -45C40 -36.3704 43.6086 -29.4746 50 -25C56.0719 -20.2058 64.4541 -18 75 -18L128 -18L128 0.499993L128 19L76 19C65.4541 19 57.0719 20.5254 51 25C44.9281 29.7942 42 37.3704 42 46C42 56.2277 46.4541 63.9273 57 70C67.5459 76.0727 81.0214 79 97 79C129.596 79 151.413 69.1358 161 49L206 49C200.248 69.1358 188.896 85.535 171 98C153.104 110.785 128.679 117 98 117C73.0734 117 50.8135 110.826 31 99C10.867 87.1742 4.07985e-06 70.3319 6.11959e-06 47Z" fill="#F84F0A"/>
</g>
<defs>
<clipPath id="clip0_312_99">
<rect width="206" height="117" fill="white"/>
</clipPath>
</defs>
</svg>
