<svg width="209" height="234" viewBox="0 0 209 234" fill="none" xmlns="http://www.w3.org/2000/svg">
<path d="M0 116L209 116" stroke="#F84F0A" stroke-width="3"/>
<path d="M208 163.7C208 143.477 198.174 127.09 179 116.498C199.133 104.942 209 89.5183 209 69.2961C209 49.7159 199.855 33.5673 181 20.0858C162.145 6.92534 137.401 -1.52588e-05 108 -1.52588e-05C78.2798 -1.52588e-05 53.8547 6.92534 35 20.0858C16.1453 33.5673 4.79358 49.7572 0 70.3004H47C56.2676 48.7942 77.8058 38.1631 112 38.1631C127.659 38.1631 140.454 41.4239 151 47.2017C161.865 53.3005 168 61.0331 168 71.3047C168 79.9714 164.391 86.8967 158 91.3905C151.928 96.2054 143.546 98.4206 133 98.4206H80V135.579H132C142.546 135.579 150.928 137.111 157 141.605C163.072 146.42 166 154.029 166 162.695C166 172.967 161.546 180.7 151 186.798C140.454 192.897 126.979 195.837 111 195.837C78.4037 195.837 56.5872 185.93 47 165.708H2C7.75229 185.93 19.104 202.4 37 214.918C54.896 227.758 79.3211 234 110 234C134.927 234 157.187 227.799 177 215.923C197.133 204.046 208 187.132 208 163.7Z" fill="#F84F0A"/>
</svg>
