<svg width="209" height="117" viewBox="0 0 209 117" fill="none" xmlns="http://www.w3.org/2000/svg">
<g clip-path="url(#clip0_312_102)">
<path d="M179.703 117C200.836 128.191 211 146.084 211 170.841C211 189.154 204.366 204.529 191.818 216.398C179.601 228.268 162.086 234 138.311 234L-5.96046e-06 234L-5.96046e-06 0L136.292 0C160.067 0 177.582 5.73221 189.799 17.6018C202.347 29.1322 208.981 44.5071 208.981 63.1593C208.981 87.5767 199.516 105.47 179.703 117ZM42.4019 195.69L133.263 195.69C156.377 195.69 168.598 185.333 168.598 165.664C168.598 145.994 156.377 136.673 133.263 136.673L42.4019 136.673L42.4019 195.69ZM42.4019 97.3274L132.254 97.3274C155.368 97.3274 166.579 88.0058 166.579 68.3363C166.579 48.6667 155.368 38.3097 132.254 38.3097L42.4019 38.3097L42.4019 97.3274Z" fill="#F84F0A"/>
</g>
<defs>
<clipPath id="clip0_312_102">
<rect width="209" height="117" fill="white"/>
</clipPath>
</defs>
</svg>
