<svg width="209" height="117" viewBox="0 0 209 117" fill="none" xmlns="http://www.w3.org/2000/svg">
<mask id="mask0_312_103" style="mask-type:alpha" maskUnits="userSpaceOnUse" x="-1" y="0" width="210" height="117">
<path d="M0.5 115.5L207.481 115.5L207.481 1.5L0.5 1.5L0.5 115.5Z" fill="white" stroke="#F84F0A" stroke-width="3"/>
</mask>
<g mask="url(#mask0_312_103)">
<path d="M179.401 3.33602e-06C200.534 -11.1913 211 -29.5649 211 -54.3214C211 -72.6345 205.2 -87.3715 192.652 -99.2411C180.435 -111.111 162.403 -117 138.628 -117L0 -117L0 117L136.589 117C160.364 117 178.396 111.111 190.614 99.2411C203.161 87.7106 208.961 72.9736 208.961 54.3214C208.961 29.904 199.213 11.5304 179.401 3.33602e-06ZM42.8116 -78.3482L133.531 -78.3482C156.646 -78.3482 168.188 -68.7678 168.188 -49.0982C168.188 -29.4286 156.646 -19.8482 133.531 -19.8482L42.8116 -19.8482L42.8116 -78.3482ZM42.8116 19.8482L131.493 19.8482C154.607 19.8482 166.15 29.4286 166.15 49.0982C166.15 68.7678 154.607 78.3482 131.493 78.3482L42.8116 78.3482L42.8116 19.8482Z" fill="#F84F0A"/>
</g>
</svg>
