<svg width="209" height="234" viewBox="0 0 209 234" fill="none" xmlns="http://www.w3.org/2000/svg">
<path d="M177.7 117C198.633 128.191 209 146.565 209 171.321C209 189.634 203.255 204.371 190.826 216.241C178.724 228.111 160.863 234 137.314 234L5.52302e-07 234L5.52302e-07 0L135.295 0C158.844 0 176.705 5.88936 188.807 17.7589C201.236 29.2894 206.981 44.0264 206.981 62.6786C206.981 87.096 197.325 105.47 177.7 117ZM42.4058 195.348L132.266 195.348C155.161 195.348 166.594 185.768 166.594 166.098C166.594 146.429 155.161 136.848 132.266 136.848L42.4058 136.848L42.4058 195.348ZM42.4058 97.1518L130.246 97.1518C153.142 97.1518 164.575 87.5714 164.575 67.9018C164.575 48.2322 153.142 38.6518 130.246 38.6518L42.4058 38.6518L42.4058 97.1518Z" fill="#F84F0A"/>
</svg>
