<svg width="1382" height="768" viewBox="0 0 1382 768" fill="none" xmlns="http://www.w3.org/2000/svg">
<path d="M467 2H1380V686H950V766H736L522 638H320H117V382H2V99H467V2Z" fill="white"/>
<path d="M467 99V2H1380V686H950V766H736L522 638M467 99H2V382H117V638H320H522M467 99H950V167M522 638L950 382V167M950 167H963" stroke="#F84F0A" stroke-width="3"/>
<path d="M950 305H963" stroke="#F84F0A" stroke-width="4"/>
<path d="M1132 686H1272" stroke="white" stroke-width="18"/>
<path d="M949 168.5L949 303" stroke="white" stroke-width="18"/>
<path d="M164 94H304" stroke="white" stroke-width="18"/>
<path d="M1132 684.5V695" stroke="#F84F0A" stroke-width="3"/>
<path d="M303 85V100.5" stroke="#F84F0A" stroke-width="3"/>
<path d="M164 85V100.5" stroke="#F84F0A" stroke-width="3"/>
<path d="M1272 684.5V695" stroke="#F84F0A" stroke-width="3"/>
</svg>
