<svg width="53" height="53" viewBox="0 0 53 53" fill="none" xmlns="http://www.w3.org/2000/svg">
<circle cx="26.5" cy="26.5" r="23.2308" stroke="#F84F0A" stroke-width="6.53832"/>
<path d="M33.5326 37.3047C31.8373 38.7688 29.5641 39.5009 26.7129 39.5009C23.8618 39.5009 21.5757 38.7688 19.8547 37.3047C18.1594 35.8406 17.3118 34.0554 17.3118 31.9491C17.3118 29.5089 18.5062 27.4926 20.895 25.9C18.686 24.4616 17.5815 22.548 17.5815 20.1591C17.5815 18.1556 18.4034 16.4475 20.0473 15.0347C21.717 13.622 23.9388 12.9156 26.7129 12.9156C29.487 12.9156 31.6961 13.622 33.34 15.0347C35.0096 16.4475 35.8444 18.1556 35.8444 20.1591C35.8444 22.548 34.7399 24.4616 32.5309 25.9C34.9197 27.4926 36.1141 29.5089 36.1141 31.9491C36.1141 34.0554 35.2536 35.8406 33.5326 37.3047ZM32.3767 20.1591C32.3767 18.9776 31.8502 18.0143 30.797 17.2694C29.7439 16.5245 28.3825 16.1521 26.7129 16.1521C25.0433 16.1521 23.682 16.5245 22.6288 17.2694C21.5757 18.0143 21.0491 18.9776 21.0491 20.1591C21.0491 21.4434 21.55 22.4581 22.5518 23.203C23.5792 23.9222 24.9663 24.2818 26.7129 24.2818C28.4596 24.2818 29.8338 23.9222 30.8356 23.203C31.863 22.4581 32.3767 21.4434 32.3767 20.1591ZM22.4747 35.0315C23.6049 35.8534 25.0176 36.2644 26.7129 36.2644C28.4082 36.2644 29.821 35.8534 30.9512 35.0315C32.0814 34.2095 32.6465 33.1821 32.6465 31.9491C32.6465 30.5878 32.107 29.5089 31.0282 28.7127C29.9494 27.9164 28.511 27.5182 26.7129 27.5182C24.9149 27.5182 23.4765 27.9164 22.3976 28.7127C21.3188 29.5089 20.7794 30.5878 20.7794 31.9491C20.7794 33.1821 21.3445 34.2095 22.4747 35.0315Z" fill="#F84F0A"/>
</svg>
