<svg width="1453" height="885" viewBox="0 0 1453 885" fill="none" xmlns="http://www.w3.org/2000/svg">
<path d="M40 49V828" stroke="#F84F0A" stroke-width="4"/>
<path d="M51 49V828" stroke="#F84F0A" stroke-width="4"/>
<path d="M63 49V63" stroke="#F84F0A" stroke-width="4"/>
<path d="M63 816V828" stroke="#F84F0A" stroke-width="4"/>
<path d="M74 49V63" stroke="#F84F0A" stroke-width="4"/>
<path d="M74 816V828" stroke="#F84F0A" stroke-width="4"/>
<path d="M86 49V63" stroke="#F84F0A" stroke-width="4"/>
<path d="M86 816V828" stroke="#F84F0A" stroke-width="4"/>
<path d="M97 49V63" stroke="#F84F0A" stroke-width="4"/>
<path d="M97 816V828" stroke="#F84F0A" stroke-width="4"/>
<path d="M109 49V63" stroke="#F84F0A" stroke-width="4"/>
<path d="M109 816V828" stroke="#F84F0A" stroke-width="4"/>
<path d="M120 49V63" stroke="#F84F0A" stroke-width="4"/>
<path d="M120 816V828" stroke="#F84F0A" stroke-width="4"/>
<path d="M132 49V63" stroke="#F84F0A" stroke-width="4"/>
<path d="M132 816V828" stroke="#F84F0A" stroke-width="4"/>
<path d="M143 49V63" stroke="#F84F0A" stroke-width="4"/>
<path d="M143 816V828" stroke="#F84F0A" stroke-width="4"/>
<path d="M155 49V63" stroke="#F84F0A" stroke-width="4"/>
<path d="M155 816V828" stroke="#F84F0A" stroke-width="4"/>
<path d="M189 49V63" stroke="#F84F0A" stroke-width="4"/>
<path d="M189 816V828" stroke="#F84F0A" stroke-width="4"/>
<path d="M200 49V63" stroke="#F84F0A" stroke-width="4"/>
<path d="M200 816V828" stroke="#F84F0A" stroke-width="4"/>
<path d="M212 49V63" stroke="#F84F0A" stroke-width="4"/>
<path d="M212 816V828" stroke="#F84F0A" stroke-width="4"/>
<path d="M223 49V63" stroke="#F84F0A" stroke-width="4"/>
<path d="M223 816V828" stroke="#F84F0A" stroke-width="4"/>
<path d="M166 49V63" stroke="#F84F0A" stroke-width="4"/>
<path d="M166 816V828" stroke="#F84F0A" stroke-width="4"/>
<path d="M177 49V63" stroke="#F84F0A" stroke-width="4"/>
<path d="M177 816V828" stroke="#F84F0A" stroke-width="4"/>
<path d="M258 49V63" stroke="#F84F0A" stroke-width="4"/>
<path d="M258 816V828" stroke="#F84F0A" stroke-width="4"/>
<path d="M475 49V63" stroke="#F84F0A" stroke-width="4"/>
<path d="M475 816V828" stroke="#F84F0A" stroke-width="4"/>
<path d="M246 49V63" stroke="#F84F0A" stroke-width="4"/>
<path d="M246 816V828" stroke="#F84F0A" stroke-width="4"/>
<path d="M463 49V63" stroke="#F84F0A" stroke-width="4"/>
<path d="M463 816V828" stroke="#F84F0A" stroke-width="4"/>
<path d="M235 49V63" stroke="#F84F0A" stroke-width="4"/>
<path d="M235 816V828" stroke="#F84F0A" stroke-width="4"/>
<path d="M452 49V63" stroke="#F84F0A" stroke-width="4"/>
<path d="M292 49V63" stroke="#F84F0A" stroke-width="4"/>
<path d="M292 816V828" stroke="#F84F0A" stroke-width="4"/>
<path d="M509 49V63" stroke="#F84F0A" stroke-width="4"/>
<path d="M509 816V828" stroke="#F84F0A" stroke-width="4"/>
<path d="M281 49V63" stroke="#F84F0A" stroke-width="4"/>
<path d="M281 816V828" stroke="#F84F0A" stroke-width="4"/>
<path d="M498 49V63" stroke="#F84F0A" stroke-width="4"/>
<path d="M498 816V828" stroke="#F84F0A" stroke-width="4"/>
<path d="M269 49V63" stroke="#F84F0A" stroke-width="4"/>
<path d="M269 816V828" stroke="#F84F0A" stroke-width="4"/>
<path d="M486 49V63" stroke="#F84F0A" stroke-width="4"/>
<path d="M486 816V828" stroke="#F84F0A" stroke-width="4"/>
<path d="M326 49V63" stroke="#F84F0A" stroke-width="4"/>
<path d="M326 816V828" stroke="#F84F0A" stroke-width="4"/>
<path d="M543 49V63" stroke="#F84F0A" stroke-width="4"/>
<path d="M543 816V828" stroke="#F84F0A" stroke-width="4"/>
<path d="M315 49V63" stroke="#F84F0A" stroke-width="4"/>
<path d="M315 816V828" stroke="#F84F0A" stroke-width="4"/>
<path d="M532 49V63" stroke="#F84F0A" stroke-width="4"/>
<path d="M532 816V828" stroke="#F84F0A" stroke-width="4"/>
<path d="M361 49V63" stroke="#F84F0A" stroke-width="4"/>
<path d="M361 816V828" stroke="#F84F0A" stroke-width="4"/>
<path d="M578 49V63" stroke="#F84F0A" stroke-width="4"/>
<path d="M578 816V828" stroke="#F84F0A" stroke-width="4"/>
<path d="M349 49V63" stroke="#F84F0A" stroke-width="4"/>
<path d="M349 816V828" stroke="#F84F0A" stroke-width="4"/>
<path d="M566 49V63" stroke="#F84F0A" stroke-width="4"/>
<path d="M566 816V828" stroke="#F84F0A" stroke-width="4"/>
<path d="M338 49V63" stroke="#F84F0A" stroke-width="4"/>
<path d="M338 816V828" stroke="#F84F0A" stroke-width="4"/>
<path d="M555 49V63" stroke="#F84F0A" stroke-width="4"/>
<path d="M555 816V828" stroke="#F84F0A" stroke-width="4"/>
<path d="M395 49V63" stroke="#F84F0A" stroke-width="4"/>
<path d="M395 816V828" stroke="#F84F0A" stroke-width="4"/>
<path d="M614 49V828" stroke="#F84F0A" stroke-width="4"/>
<path d="M384 49V63" stroke="#F84F0A" stroke-width="4"/>
<path d="M384 816V828" stroke="#F84F0A" stroke-width="4"/>
<path d="M603 49V63" stroke="#F84F0A" stroke-width="4"/>
<path d="M603 816V828" stroke="#F84F0A" stroke-width="4"/>
<path d="M418 49V63" stroke="#F84F0A" stroke-width="4"/>
<path d="M418 816V828" stroke="#F84F0A" stroke-width="4"/>
<path d="M441 49V63" stroke="#F84F0A" stroke-width="4"/>
<path d="M441 816V828" stroke="#F84F0A" stroke-width="4"/>
<path d="M452 49V63" stroke="#F84F0A" stroke-width="4"/>
<path d="M452 816V828" stroke="#F84F0A" stroke-width="4"/>
<path d="M430 49V63" stroke="#F84F0A" stroke-width="4"/>
<path d="M430 816V828" stroke="#F84F0A" stroke-width="4"/>
<path d="M407 49V63" stroke="#F84F0A" stroke-width="4"/>
<path d="M407 816V828" stroke="#F84F0A" stroke-width="4"/>
<path d="M626 49V828" stroke="#F84F0A" stroke-width="4"/>
<path d="M372 49V63" stroke="#F84F0A" stroke-width="4"/>
<path d="M372 816V828" stroke="#F84F0A" stroke-width="4"/>
<path d="M589 49V63" stroke="#F84F0A" stroke-width="4"/>
<path d="M589 816V828" stroke="#F84F0A" stroke-width="4"/>
<path d="M304 49V63" stroke="#F84F0A" stroke-width="4"/>
<path d="M304 816V828" stroke="#F84F0A" stroke-width="4"/>
<path d="M521 49V63" stroke="#F84F0A" stroke-width="4"/>
<path d="M521 816V828" stroke="#F84F0A" stroke-width="4"/>
</svg>
