<svg width="544" height="753" viewBox="0 0 544 753" fill="none" xmlns="http://www.w3.org/2000/svg">
<ellipse cx="337.5" cy="538" rx="50.5" ry="50" fill="white"/>
<ellipse cx="337.5" cy="424" rx="50.5" ry="50" fill="white"/>
<ellipse cx="337.5" cy="310" rx="50.5" ry="50" fill="white"/>
<ellipse cx="338.5" cy="197" rx="50.5" ry="50" fill="white"/>
<ellipse cx="338.5" cy="83" rx="50.5" ry="50" fill="white"/>
<circle cx="338" cy="83" r="54.5" stroke="white"/>
<circle cx="338" cy="197" r="54.5" stroke="white"/>
<circle cx="337" cy="310" r="54.5" stroke="white"/>
<circle cx="337" cy="424" r="54.5" stroke="white"/>
<circle cx="337" cy="538" r="54.5" stroke="white"/>
<ellipse cx="204.5" cy="538" rx="50.5" ry="50" fill="white"/>
<ellipse cx="204.5" cy="424" rx="50.5" ry="50" fill="white"/>
<ellipse cx="204.5" cy="310" rx="50.5" ry="50" fill="white"/>
<ellipse cx="204.5" cy="197" rx="50.5" ry="50" fill="white"/>
<ellipse cx="203.5" cy="83" rx="50.5" ry="50" fill="white"/>
<circle cx="204" cy="83" r="54.5" stroke="white"/>
<circle cx="204" cy="196" r="54.5" stroke="white"/>
<circle cx="204" cy="310" r="54.5" stroke="white"/>
<circle cx="204" cy="424" r="54.5" stroke="white"/>
<circle cx="204" cy="538" r="54.5" stroke="white"/>
<circle cx="204.5" cy="668.5" r="50.5" fill="white"/>
<circle cx="204" cy="669" r="54.5" stroke="white"/>
<circle cx="472.5" cy="669.5" r="50.5" fill="white"/>
<circle cx="472" cy="669" r="54.5" stroke="white"/>
<circle cx="337.5" cy="669.5" r="50.5" fill="white"/>
<circle cx="338" cy="669" r="54.5" stroke="white"/>
<circle cx="69.5" cy="668.5" r="50.5" fill="white"/>
<circle cx="70" cy="669" r="54.5" stroke="white"/>
</svg>
