<svg width="52" height="52" viewBox="0 0 52 52" fill="none" xmlns="http://www.w3.org/2000/svg">
<circle cx="26" cy="26.0001" r="23.9247" stroke="#F84F0A" stroke-width="4.15063"/>
<path d="M32.5326 38.3048C30.8373 39.7689 28.5641 40.501 25.7129 40.501C22.8618 40.501 20.5757 39.7689 18.8547 38.3048C17.1594 36.8407 16.3118 35.0555 16.3118 32.9492C16.3118 30.5091 17.5062 28.4927 19.895 26.9001C17.686 25.4617 16.5815 23.5481 16.5815 21.1593C16.5815 19.1557 17.4034 17.4476 19.0473 16.0349C20.717 14.6221 22.9388 13.9157 25.7129 13.9157C28.487 13.9157 30.6961 14.6221 32.34 16.0349C34.0096 17.4476 34.8444 19.1557 34.8444 21.1593C34.8444 23.5481 33.7399 25.4617 31.5309 26.9001C33.9197 28.4927 35.1141 30.5091 35.1141 32.9492C35.1141 35.0555 34.2536 36.8407 32.5326 38.3048ZM31.3767 21.1593C31.3767 19.9777 30.8502 19.0145 29.797 18.2696C28.7439 17.5247 27.3825 17.1522 25.7129 17.1522C24.0433 17.1522 22.682 17.5247 21.6288 18.2696C20.5757 19.0145 20.0491 19.9777 20.0491 21.1593C20.0491 22.4436 20.55 23.4582 21.5518 24.2031C22.5792 24.9223 23.9663 25.2819 25.7129 25.2819C27.4596 25.2819 28.8338 24.9223 29.8356 24.2031C30.863 23.4582 31.3767 22.4436 31.3767 21.1593ZM21.4747 36.0316C22.6049 36.8536 24.0176 37.2645 25.7129 37.2645C27.4082 37.2645 28.821 36.8536 29.9512 36.0316C31.0814 35.2096 31.6465 34.1822 31.6465 32.9492C31.6465 31.5879 31.107 30.5091 30.0282 29.7128C28.9494 28.9165 27.511 28.5184 25.7129 28.5184C23.9149 28.5184 22.4765 28.9165 21.3976 29.7128C20.3188 30.5091 19.7794 31.5879 19.7794 32.9492C19.7794 34.1822 20.3445 35.2096 21.4747 36.0316Z" fill="#F84F0A"/>
</svg>
