<svg width="441" height="46" viewBox="0 0 441 46" fill="none" xmlns="http://www.w3.org/2000/svg">
<mask id="path-1-outside-1_275_1711" maskUnits="userSpaceOnUse" x="0.491211" y="0.0229492" width="440" height="46" fill="black">
<rect fill="white" x="0.491211" y="0.0229492" width="440" height="46"/>
<path d="M17.7425 44.8253C12.8756 44.8253 8.93972 43.5979 5.93492 41.1433C2.97245 38.6887 1.49121 35.6416 1.49121 32.002C1.49121 27.9391 3.31102 24.8286 6.95063 22.6702C3.64959 20.5964 1.99906 17.5705 1.99906 13.5923C1.99906 10.0373 3.41682 7.0537 6.25233 4.6414C9.13016 2.2291 12.9602 1.02295 17.7425 1.02295C22.4825 1.02295 26.2702 2.2291 29.1057 4.6414C31.9835 7.0537 33.4225 10.0373 33.4225 13.5923C33.4225 17.5705 31.7719 20.5964 28.4709 22.6702C32.1105 24.8286 33.9303 27.9391 33.9303 32.002C33.9303 35.6416 32.4279 38.6887 29.4231 41.1433C26.4606 43.5979 22.5671 44.8253 17.7425 44.8253ZM17.7425 37.3979C20.1125 37.3979 22.0169 36.8901 23.4558 35.8744C24.8948 34.8586 25.6142 33.5255 25.6142 31.875C25.6142 30.2245 24.8948 28.9125 23.4558 27.9391C22.0593 26.9234 20.1548 26.4156 17.7425 26.4156C15.3302 26.4156 13.4046 26.9234 11.9657 27.9391C10.5268 28.9549 9.8073 30.2668 9.8073 31.875C9.8073 33.5255 10.5268 34.8586 11.9657 35.8744C13.4046 36.8901 15.3302 37.3979 17.7425 37.3979ZM25.1064 13.6558C25.1064 12.0899 24.4292 10.8203 23.075 9.84689C21.763 8.87351 19.9855 8.38681 17.7425 8.38681C15.4995 8.38681 13.7008 8.87351 12.3466 9.84689C10.9923 10.8203 10.3152 12.0899 10.3152 13.6558C10.3152 15.3063 10.9711 16.6183 12.2831 17.5917C13.6374 18.5227 15.4572 18.9882 17.7425 18.9882C20.0278 18.9882 21.8265 18.5227 23.1384 17.5917C24.4504 16.6183 25.1064 15.3063 25.1064 13.6558ZM68.9121 29.6532C64.6377 29.6532 61.0193 28.2989 58.0568 25.5903C55.0943 22.8818 53.6131 19.4749 53.6131 15.3698C53.6131 11.3916 55.0732 8.00593 57.9933 5.21274C60.9558 2.41955 64.7435 1.02295 69.3565 1.02295C74.562 1.02295 78.6883 2.73695 81.7354 6.16496C84.7825 9.55065 86.3061 14.8408 86.3061 22.0354C86.3061 25.0402 85.9887 27.8545 85.3539 30.4784C84.7614 33.1023 83.8303 35.5146 82.5607 37.7153C81.3334 39.916 79.5982 41.6512 77.3552 42.9208C75.1122 44.1904 72.5094 44.8253 69.547 44.8253C65.992 44.8253 62.8814 43.873 60.2152 41.9686C57.5489 40.0641 55.6656 37.3133 54.5653 33.716H63.1353C64.4473 36.1706 66.4998 37.3979 69.293 37.3979C71.79 37.3979 73.7791 36.4034 75.2603 34.4143C76.7839 32.4252 77.6938 29.7801 77.99 26.4791C75.7047 28.5951 72.6787 29.6532 68.9121 29.6532ZM69.7374 8.4503C67.4521 8.4503 65.5688 9.10627 64.0875 10.4182C62.6486 11.6879 61.9292 13.3384 61.9292 15.3698C61.9292 17.4012 62.6486 19.0729 64.0875 20.3848C65.5688 21.6545 67.4521 22.2893 69.7374 22.2893C71.9804 22.2893 73.8214 21.6545 75.2603 20.3848C76.6992 19.1152 77.4187 17.4435 77.4187 15.3698C77.4187 13.2961 76.6992 11.6244 75.2603 10.3547C73.8214 9.08512 71.9804 8.4503 69.7374 8.4503ZM107.968 29.6532C103.694 29.6532 100.075 28.2989 97.1129 25.5903C94.1504 22.8818 92.6691 19.4749 92.6691 15.3698C92.6691 11.3916 94.1292 8.00593 97.0494 5.21274C100.012 2.41955 103.8 1.02295 108.413 1.02295C113.618 1.02295 117.744 2.73695 120.791 6.16496C123.839 9.55065 125.362 14.8408 125.362 22.0354C125.362 25.0402 125.045 27.8545 124.41 30.4784C123.817 33.1023 122.886 35.5146 121.617 37.7153C120.389 39.916 118.654 41.6512 116.411 42.9208C114.168 44.1904 111.565 44.8253 108.603 44.8253C105.048 44.8253 101.937 43.873 99.2712 41.9686C96.605 40.0641 94.7217 37.3133 93.6214 33.716H102.191C103.503 36.1706 105.556 37.3979 108.349 37.3979C110.846 37.3979 112.835 36.4034 114.316 34.4143C115.84 32.4252 116.75 29.7801 117.046 26.4791C114.761 28.5951 111.735 29.6532 107.968 29.6532ZM108.793 8.4503C106.508 8.4503 104.625 9.10627 103.144 10.4182C101.705 11.6879 100.985 13.3384 100.985 15.3698C100.985 17.4012 101.705 19.0729 103.144 20.3848C104.625 21.6545 106.508 22.2893 108.793 22.2893C111.036 22.2893 112.877 21.6545 114.316 20.3848C115.755 19.1152 116.475 17.4435 116.475 15.3698C116.475 13.2961 115.755 11.6244 114.316 10.3547C112.877 9.08512 111.036 8.4503 108.793 8.4503ZM147.024 29.6532C142.75 29.6532 139.131 28.2989 136.169 25.5903C133.206 22.8818 131.725 19.4749 131.725 15.3698C131.725 11.3916 133.185 8.00593 136.105 5.21274C139.068 2.41955 142.856 1.02295 147.469 1.02295C152.674 1.02295 156.8 2.73695 159.848 6.16496C162.895 9.55065 164.418 14.8408 164.418 22.0354C164.418 25.0402 164.101 27.8545 163.466 30.4784C162.874 33.1023 161.942 35.5146 160.673 37.7153C159.445 39.916 157.71 41.6512 155.467 42.9208C153.224 44.1904 150.622 44.8253 147.659 44.8253C144.104 44.8253 140.994 43.873 138.327 41.9686C135.661 40.0641 133.778 37.3133 132.677 33.716H141.247C142.559 36.1706 144.612 37.3979 147.405 37.3979C149.902 37.3979 151.891 36.4034 153.372 34.4143C154.896 32.4252 155.806 29.7801 156.102 26.4791C153.817 28.5951 150.791 29.6532 147.024 29.6532ZM147.85 8.4503C145.564 8.4503 143.681 9.10627 142.2 10.4182C140.761 11.6879 140.041 13.3384 140.041 15.3698C140.041 17.4012 140.761 19.0729 142.2 20.3848C143.681 21.6545 145.564 22.2893 147.85 22.2893C150.093 22.2893 151.934 21.6545 153.372 20.3848C154.811 19.1152 155.531 17.4435 155.531 15.3698C155.531 13.2961 154.811 11.6244 153.372 10.3547C151.934 9.08512 150.093 8.4503 147.85 8.4503ZM199.853 44.8253C195.621 44.8253 192.087 43.7461 189.252 41.5877C186.416 39.4293 184.597 36.488 183.793 32.7638H192.172C193.442 35.8532 195.96 37.3979 199.726 37.3979C202.096 37.3979 203.98 36.7208 205.376 35.3665C206.815 34.0122 207.535 32.2982 207.535 30.2245C207.535 28.1508 206.815 26.4579 205.376 25.146C203.98 23.834 202.096 23.178 199.726 23.178C196.722 23.178 194.309 24.1303 192.489 26.0347H185.062L187.411 1.84821H214.137V9.27556H194.457L193.759 16.8934C195.621 16.1316 197.885 15.7507 200.552 15.7507C204.657 15.7507 208.233 17.0415 211.28 19.6231C214.327 22.1623 215.851 25.6961 215.851 30.2245C215.851 34.2873 214.369 37.7365 211.407 40.572C208.487 43.4075 204.636 44.8253 199.853 44.8253ZM241.924 17.5917H250.24V27.6852H256.969V35.1126H250.24V44H241.924V35.1126H220.277V27.6852L240.464 1.84821H250.113L229.863 27.6852H241.924V17.5917ZM283.708 17.5917H292.024V27.6852H298.753V35.1126H292.024V44H283.708V35.1126H262.061V27.6852L282.248 1.84821H291.897L271.647 27.6852H283.708V17.5917ZM325.492 17.5917H333.808V27.6852H340.537V35.1126H333.808V44H325.492V35.1126H303.845V27.6852L324.032 1.84821H333.681L313.43 27.6852H325.492V17.5917ZM362.393 16.1951C366.667 16.1951 370.285 17.5493 373.248 20.2579C376.21 22.9664 377.692 26.3733 377.692 30.4784C377.692 34.4566 376.21 37.8423 373.248 40.6355C370.328 43.4287 366.561 44.8253 361.948 44.8253C356.743 44.8253 352.616 43.1324 349.569 39.7467C346.522 36.3187 344.999 31.0074 344.999 23.8128C344.999 20.808 345.316 17.9937 345.951 15.3698C346.586 12.7459 347.559 10.3336 348.871 8.13289C350.183 5.93219 351.982 4.19703 354.267 2.9274C356.552 1.65777 359.197 1.02295 362.202 1.02295C365.757 1.02295 368.847 1.97517 371.47 3.87962C374.137 5.78407 376.02 8.53494 377.12 12.1322H368.55C367.238 9.67761 365.207 8.4503 362.456 8.4503C359.832 8.4503 357.716 9.466 356.108 11.4974C354.5 13.4865 353.569 16.1104 353.315 19.3691C355.6 17.2531 358.626 16.1951 362.393 16.1951ZM361.567 37.3979C363.853 37.3979 365.715 36.7631 367.154 35.4935C368.635 34.1815 369.376 32.5098 369.376 30.4784C369.376 28.447 368.635 26.7965 367.154 25.5268C365.715 24.2149 363.853 23.5589 361.567 23.5589C359.324 23.5589 357.483 24.1937 356.044 25.4634C354.605 26.733 353.886 28.4047 353.886 30.4784C353.886 32.5521 354.605 34.2238 356.044 35.4935C357.483 36.7631 359.324 37.3979 361.567 37.3979ZM392.117 44V11.4339L383.42 19.4326V9.65645L391.736 1.84821H400.433V44H392.117ZM430.282 9.27556H409.016V1.84821H439.487V9.27556L419.427 44H410.222L430.282 9.27556Z"/>
</mask>
<path d="M17.7425 44.8253C12.8756 44.8253 8.93972 43.5979 5.93492 41.1433C2.97245 38.6887 1.49121 35.6416 1.49121 32.002C1.49121 27.9391 3.31102 24.8286 6.95063 22.6702C3.64959 20.5964 1.99906 17.5705 1.99906 13.5923C1.99906 10.0373 3.41682 7.0537 6.25233 4.6414C9.13016 2.2291 12.9602 1.02295 17.7425 1.02295C22.4825 1.02295 26.2702 2.2291 29.1057 4.6414C31.9835 7.0537 33.4225 10.0373 33.4225 13.5923C33.4225 17.5705 31.7719 20.5964 28.4709 22.6702C32.1105 24.8286 33.9303 27.9391 33.9303 32.002C33.9303 35.6416 32.4279 38.6887 29.4231 41.1433C26.4606 43.5979 22.5671 44.8253 17.7425 44.8253ZM17.7425 37.3979C20.1125 37.3979 22.0169 36.8901 23.4558 35.8744C24.8948 34.8586 25.6142 33.5255 25.6142 31.875C25.6142 30.2245 24.8948 28.9125 23.4558 27.9391C22.0593 26.9234 20.1548 26.4156 17.7425 26.4156C15.3302 26.4156 13.4046 26.9234 11.9657 27.9391C10.5268 28.9549 9.8073 30.2668 9.8073 31.875C9.8073 33.5255 10.5268 34.8586 11.9657 35.8744C13.4046 36.8901 15.3302 37.3979 17.7425 37.3979ZM25.1064 13.6558C25.1064 12.0899 24.4292 10.8203 23.075 9.84689C21.763 8.87351 19.9855 8.38681 17.7425 8.38681C15.4995 8.38681 13.7008 8.87351 12.3466 9.84689C10.9923 10.8203 10.3152 12.0899 10.3152 13.6558C10.3152 15.3063 10.9711 16.6183 12.2831 17.5917C13.6374 18.5227 15.4572 18.9882 17.7425 18.9882C20.0278 18.9882 21.8265 18.5227 23.1384 17.5917C24.4504 16.6183 25.1064 15.3063 25.1064 13.6558ZM68.9121 29.6532C64.6377 29.6532 61.0193 28.2989 58.0568 25.5903C55.0943 22.8818 53.6131 19.4749 53.6131 15.3698C53.6131 11.3916 55.0732 8.00593 57.9933 5.21274C60.9558 2.41955 64.7435 1.02295 69.3565 1.02295C74.562 1.02295 78.6883 2.73695 81.7354 6.16496C84.7825 9.55065 86.3061 14.8408 86.3061 22.0354C86.3061 25.0402 85.9887 27.8545 85.3539 30.4784C84.7614 33.1023 83.8303 35.5146 82.5607 37.7153C81.3334 39.916 79.5982 41.6512 77.3552 42.9208C75.1122 44.1904 72.5094 44.8253 69.547 44.8253C65.992 44.8253 62.8814 43.873 60.2152 41.9686C57.5489 40.0641 55.6656 37.3133 54.5653 33.716H63.1353C64.4473 36.1706 66.4998 37.3979 69.293 37.3979C71.79 37.3979 73.7791 36.4034 75.2603 34.4143C76.7839 32.4252 77.6938 29.7801 77.99 26.4791C75.7047 28.5951 72.6787 29.6532 68.9121 29.6532ZM69.7374 8.4503C67.4521 8.4503 65.5688 9.10627 64.0875 10.4182C62.6486 11.6879 61.9292 13.3384 61.9292 15.3698C61.9292 17.4012 62.6486 19.0729 64.0875 20.3848C65.5688 21.6545 67.4521 22.2893 69.7374 22.2893C71.9804 22.2893 73.8214 21.6545 75.2603 20.3848C76.6992 19.1152 77.4187 17.4435 77.4187 15.3698C77.4187 13.2961 76.6992 11.6244 75.2603 10.3547C73.8214 9.08512 71.9804 8.4503 69.7374 8.4503ZM107.968 29.6532C103.694 29.6532 100.075 28.2989 97.1129 25.5903C94.1504 22.8818 92.6691 19.4749 92.6691 15.3698C92.6691 11.3916 94.1292 8.00593 97.0494 5.21274C100.012 2.41955 103.8 1.02295 108.413 1.02295C113.618 1.02295 117.744 2.73695 120.791 6.16496C123.839 9.55065 125.362 14.8408 125.362 22.0354C125.362 25.0402 125.045 27.8545 124.41 30.4784C123.817 33.1023 122.886 35.5146 121.617 37.7153C120.389 39.916 118.654 41.6512 116.411 42.9208C114.168 44.1904 111.565 44.8253 108.603 44.8253C105.048 44.8253 101.937 43.873 99.2712 41.9686C96.605 40.0641 94.7217 37.3133 93.6214 33.716H102.191C103.503 36.1706 105.556 37.3979 108.349 37.3979C110.846 37.3979 112.835 36.4034 114.316 34.4143C115.84 32.4252 116.75 29.7801 117.046 26.4791C114.761 28.5951 111.735 29.6532 107.968 29.6532ZM108.793 8.4503C106.508 8.4503 104.625 9.10627 103.144 10.4182C101.705 11.6879 100.985 13.3384 100.985 15.3698C100.985 17.4012 101.705 19.0729 103.144 20.3848C104.625 21.6545 106.508 22.2893 108.793 22.2893C111.036 22.2893 112.877 21.6545 114.316 20.3848C115.755 19.1152 116.475 17.4435 116.475 15.3698C116.475 13.2961 115.755 11.6244 114.316 10.3547C112.877 9.08512 111.036 8.4503 108.793 8.4503ZM147.024 29.6532C142.75 29.6532 139.131 28.2989 136.169 25.5903C133.206 22.8818 131.725 19.4749 131.725 15.3698C131.725 11.3916 133.185 8.00593 136.105 5.21274C139.068 2.41955 142.856 1.02295 147.469 1.02295C152.674 1.02295 156.8 2.73695 159.848 6.16496C162.895 9.55065 164.418 14.8408 164.418 22.0354C164.418 25.0402 164.101 27.8545 163.466 30.4784C162.874 33.1023 161.942 35.5146 160.673 37.7153C159.445 39.916 157.71 41.6512 155.467 42.9208C153.224 44.1904 150.622 44.8253 147.659 44.8253C144.104 44.8253 140.994 43.873 138.327 41.9686C135.661 40.0641 133.778 37.3133 132.677 33.716H141.247C142.559 36.1706 144.612 37.3979 147.405 37.3979C149.902 37.3979 151.891 36.4034 153.372 34.4143C154.896 32.4252 155.806 29.7801 156.102 26.4791C153.817 28.5951 150.791 29.6532 147.024 29.6532ZM147.85 8.4503C145.564 8.4503 143.681 9.10627 142.2 10.4182C140.761 11.6879 140.041 13.3384 140.041 15.3698C140.041 17.4012 140.761 19.0729 142.2 20.3848C143.681 21.6545 145.564 22.2893 147.85 22.2893C150.093 22.2893 151.934 21.6545 153.372 20.3848C154.811 19.1152 155.531 17.4435 155.531 15.3698C155.531 13.2961 154.811 11.6244 153.372 10.3547C151.934 9.08512 150.093 8.4503 147.85 8.4503ZM199.853 44.8253C195.621 44.8253 192.087 43.7461 189.252 41.5877C186.416 39.4293 184.597 36.488 183.793 32.7638H192.172C193.442 35.8532 195.96 37.3979 199.726 37.3979C202.096 37.3979 203.98 36.7208 205.376 35.3665C206.815 34.0122 207.535 32.2982 207.535 30.2245C207.535 28.1508 206.815 26.4579 205.376 25.146C203.98 23.834 202.096 23.178 199.726 23.178C196.722 23.178 194.309 24.1303 192.489 26.0347H185.062L187.411 1.84821H214.137V9.27556H194.457L193.759 16.8934C195.621 16.1316 197.885 15.7507 200.552 15.7507C204.657 15.7507 208.233 17.0415 211.28 19.6231C214.327 22.1623 215.851 25.6961 215.851 30.2245C215.851 34.2873 214.369 37.7365 211.407 40.572C208.487 43.4075 204.636 44.8253 199.853 44.8253ZM241.924 17.5917H250.24V27.6852H256.969V35.1126H250.24V44H241.924V35.1126H220.277V27.6852L240.464 1.84821H250.113L229.863 27.6852H241.924V17.5917ZM283.708 17.5917H292.024V27.6852H298.753V35.1126H292.024V44H283.708V35.1126H262.061V27.6852L282.248 1.84821H291.897L271.647 27.6852H283.708V17.5917ZM325.492 17.5917H333.808V27.6852H340.537V35.1126H333.808V44H325.492V35.1126H303.845V27.6852L324.032 1.84821H333.681L313.43 27.6852H325.492V17.5917ZM362.393 16.1951C366.667 16.1951 370.285 17.5493 373.248 20.2579C376.21 22.9664 377.692 26.3733 377.692 30.4784C377.692 34.4566 376.21 37.8423 373.248 40.6355C370.328 43.4287 366.561 44.8253 361.948 44.8253C356.743 44.8253 352.616 43.1324 349.569 39.7467C346.522 36.3187 344.999 31.0074 344.999 23.8128C344.999 20.808 345.316 17.9937 345.951 15.3698C346.586 12.7459 347.559 10.3336 348.871 8.13289C350.183 5.93219 351.982 4.19703 354.267 2.9274C356.552 1.65777 359.197 1.02295 362.202 1.02295C365.757 1.02295 368.847 1.97517 371.47 3.87962C374.137 5.78407 376.02 8.53494 377.12 12.1322H368.55C367.238 9.67761 365.207 8.4503 362.456 8.4503C359.832 8.4503 357.716 9.466 356.108 11.4974C354.5 13.4865 353.569 16.1104 353.315 19.3691C355.6 17.2531 358.626 16.1951 362.393 16.1951ZM361.567 37.3979C363.853 37.3979 365.715 36.7631 367.154 35.4935C368.635 34.1815 369.376 32.5098 369.376 30.4784C369.376 28.447 368.635 26.7965 367.154 25.5268C365.715 24.2149 363.853 23.5589 361.567 23.5589C359.324 23.5589 357.483 24.1937 356.044 25.4634C354.605 26.733 353.886 28.4047 353.886 30.4784C353.886 32.5521 354.605 34.2238 356.044 35.4935C357.483 36.7631 359.324 37.3979 361.567 37.3979ZM392.117 44V11.4339L383.42 19.4326V9.65645L391.736 1.84821H400.433V44H392.117ZM430.282 9.27556H409.016V1.84821H439.487V9.27556L419.427 44H410.222L430.282 9.27556Z" stroke="#F84F0A" stroke-width="2" mask="url(#path-1-outside-1_275_1711)"/>
</svg>
