<svg width="473" height="488" viewBox="0 0 473 488" fill="none" xmlns="http://www.w3.org/2000/svg">
<path d="M318.998 2.00792L426.998 1.67098L427.11 37.6708C394.747 75.7582 358.155 169.161 469.725 234.539L470.505 484.538L257.506 485.202L237.428 460.265L215.506 485.333L2.50684 485.998L1.7269 235.999C47.1728 212.668 120.08 139.867 47.1121 38.8563L47.0559 20.8564L46.9998 2.85649L56.9997 2.82529L68.9997 2.78786L79.9996 2.75354L89.9996 2.72234L102 2.6849L113.999 2.64747L123.999 2.61627L137.999 2.57259L147.999 2.5414L150.999 2.53204L158.03 12.5102L175.115 39.457L236.411 134.266L296.111 38.0795L318.998 2.00792Z" fill="white"/>
<path d="M427.11 37.6708L426.998 1.67098L318.998 2.00792L296.111 38.0795M427.11 37.6708C394.747 75.7582 358.155 169.161 469.725 234.539L470.505 484.538L257.506 485.202L237.428 460.265L215.506 485.333L2.50684 485.998L1.7269 235.999C47.1728 212.668 120.08 139.867 47.1121 38.8563M427.11 37.6708L296.111 38.0795M47.1121 38.8563L47.0559 20.8564L46.9998 2.85649L56.9997 2.82529L68.9997 2.78786L79.9996 2.75354L89.9996 2.72234L102 2.6849L113.999 2.64747L123.999 2.61627L137.999 2.57259L147.999 2.5414L150.999 2.53204L158.03 12.5102L175.115 39.457M47.1121 38.8563L57.112 38.8251L69.1151 39.7877L79.1151 39.7565L90.115 39.7222L101.115 39.6878L113.115 39.6504L124.115 39.6161L138.115 39.5724L147.115 39.5443L157.115 39.5131L175.115 39.457M175.115 39.457L236.411 134.266L296.111 38.0795" stroke="#F84F0A" stroke-width="3"/>
<rect x="2" y="236" width="469" height="41" transform="rotate(-0.178749 2 236)" fill="#F84F0A"/>
<rect x="2" y="307" width="469" height="41" transform="rotate(-0.178749 2 307)" fill="#F84F0A"/>
<path d="M57 3V38" stroke="#F84F0A" stroke-width="3"/>
<path d="M418 1V37" stroke="#F84F0A" stroke-width="3"/>
<path d="M47 3V38" stroke="#F84F0A" stroke-width="3"/>
<path d="M68 3V38" stroke="#F84F0A" stroke-width="3"/>
<path d="M407 1V37" stroke="#F84F0A" stroke-width="3"/>
<path d="M78 3V38" stroke="#F84F0A" stroke-width="3"/>
<path d="M397 1V37" stroke="#F84F0A" stroke-width="3"/>
<path d="M88 3V38" stroke="#F84F0A" stroke-width="3"/>
<path d="M386 1V37" stroke="#F84F0A" stroke-width="3"/>
<path d="M99 3V38" stroke="#F84F0A" stroke-width="3"/>
<path d="M375 1V37" stroke="#F84F0A" stroke-width="3"/>
<path d="M109 3V39" stroke="#F84F0A" stroke-width="3"/>
<path d="M365 1V38" stroke="#F84F0A" stroke-width="3"/>
<path d="M119 3V39" stroke="#F84F0A" stroke-width="3"/>
<path d="M354 1V38" stroke="#F84F0A" stroke-width="3"/>
<path d="M129 3V39" stroke="#F84F0A" stroke-width="3"/>
<path d="M343 1V38" stroke="#F84F0A" stroke-width="3"/>
<path d="M140 3V39" stroke="#F84F0A" stroke-width="3"/>
<path d="M332 1V38" stroke="#F84F0A" stroke-width="3"/>
<path d="M150 3V39" stroke="#F84F0A" stroke-width="3"/>
<path d="M322 1V38" stroke="#F84F0A" stroke-width="3"/>
<path d="M160 16V39" stroke="#F84F0A" stroke-width="3"/>
<path d="M311 14V38" stroke="#F84F0A" stroke-width="3"/>
</svg>
