<svg width="375" height="388" viewBox="0 0 375 388" fill="none" xmlns="http://www.w3.org/2000/svg">
<path d="M40.7529 322.297L150.5 258.605V385V386.5H152H223H224.5V385V258.617L333.242 322.294L334.541 323.055L335.297 321.753L371.297 259.753L372.059 258.442L370.739 257.695L260.008 194.98L370.757 130.295L372.048 129.541L371.297 128.247L335.297 66.2468L334.536 64.9361L333.233 65.7107L224.5 130.363V3V1.5H223H152H150.5V3V130.375L40.7615 65.7077L39.445 64.9319L38.6938 66.2626L3.69376 128.263L2.96995 129.545L4.23846 130.292L114.012 194.98L4.25579 257.698L2.96022 258.438L3.69376 259.737L38.6938 321.737L39.44 323.059L40.7529 322.297Z" stroke="#F84F0A" stroke-width="3"/>
</svg>
