<svg width="304" height="629" viewBox="0 0 304 629" fill="none" xmlns="http://www.w3.org/2000/svg">
<path d="M61.3647 551.614C61.3647 545.022 62.543 539.219 64.0006 532.822C65.398 526.689 66.4318 520.083 69.9555 514.713C72.9124 510.207 74.6903 505.326 76.3254 500.216C77.3581 496.989 78.5432 493.832 79.5714 490.6C79.9229 489.495 79.8154 488.342 79.8154 490.112" stroke="white" stroke-width="37" stroke-linecap="round"/>
<path d="M302.5 574.5C302.5 581.415 298.596 588.203 291.085 594.57C283.581 600.931 272.633 606.728 258.974 611.625C231.669 621.416 193.848 627.5 152 627.5C110.152 627.5 72.3314 621.416 45.026 611.625C31.3669 606.728 20.4192 600.931 12.9149 594.57C5.40402 588.203 1.5 581.415 1.5 574.5C1.5 567.585 5.40402 560.797 12.9149 554.43C20.4192 548.069 31.3669 542.272 45.026 537.375C72.3314 527.584 110.152 521.5 152 521.5C193.848 521.5 231.669 527.584 258.974 537.375C272.633 542.272 283.581 548.069 291.085 554.43C298.596 560.797 302.5 567.585 302.5 574.5Z" fill="white" stroke="#F84F0A" stroke-width="3"/>
<path d="M272.5 583.5C251.82 600.009 205.589 613 152 613C97.8861 613 50.8777 600.269 30.5 583.5" stroke="#F84F0A" stroke-width="3"/>
<path d="M142.304 507.752C142.304 493.178 142.304 449.455 142.304 464.029C142.304 464.527 142.313 465.008 142.214 465.5C141.1 471.074 140.178 476.685 139.05 482.258C136.218 496.248 133.179 510.345 129.378 524.109C128.468 527.405 127.429 530.67 126.348 533.914C125.893 535.278 125.464 537.537 124.476 538.705C124.131 539.113 123.899 538.454 123.852 538.193C123.204 534.608 123.504 530.344 123.562 526.827C124.003 500.294 127.221 474.136 130.938 447.895C132.842 434.458 134.7 421.023 136.22 407.537C136.316 406.682 137.006 403.654 136.599 402.568C136.061 401.134 135.388 405.381 134.816 406.802C129.484 420.037 124.904 433.534 120.331 447.048C113.577 467.003 106.8 486.951 102.369 507.573C101.125 513.364 100.009 519.227 99.4723 525.134C99.3326 526.67 99.3832 528.294 99.3832 525.513C99.3832 520.777 99.8121 515.99 100.542 511.317C103.716 490.994 108.783 470.942 113.512 450.948C118.577 429.531 123.605 408.128 128.42 386.656C128.99 384.114 130.676 376.487 130.248 379.057C129.626 382.789 126.722 386.834 125.144 390.133C113.685 414.087 108.713 439.815 106.782 466.168C106.175 474.453 105.779 482.752 105.177 491.038C104.963 493.987 105.658 498.649 104.397 501.423C104.376 501.47 105.388 498.653 105.601 498.258C116.244 478.521 126.395 458.711 135.663 438.268C142.801 422.523 149.61 406.697 157.413 391.269C158.685 388.753 159.839 386.054 161.29 383.626C161.971 382.487 161.954 386.222 161.959 387.548C162.076 423.302 164.527 459.298 171.809 494.381C172.638 498.376 173.5 502.486 174.795 506.37C175.467 508.388 176.163 500.707 176.221 500.309C177.368 492.386 177.917 484.203 177.536 476.197C177.347 472.228 176.719 468.091 174.839 464.542C174.817 464.499 173.86 462.563 174.037 463.361C174.762 466.625 176.786 469.864 178.115 472.898C183.722 485.7 189.057 498.483 193.804 511.629C195.4 516.049 194.464 521.399 194.851 526.07C195.058 528.572 195.071 531.18 195.564 533.647C195.818 534.914 195.706 533.901 195.921 532.934C197.346 526.519 201.626 519.958 201.626 513.323C201.626 510.374 200.315 507.583 199.241 504.899C197.865 501.459 196.856 498.142 196.032 494.537C193.851 484.994 190.008 476.241 186.026 467.327C182.06 458.449 176.824 450.48 172.299 441.923C169.355 436.356 166.486 430.757 164.276 424.852C160.89 415.802 159.081 406.516 157.212 397.063C155.294 387.361 150.94 379.349 146.315 370.745C142.172 363.039 138.782 355.477 138.693 346.588C138.691 346.292 138.693 343.723 138.693 344.182C138.693 344.808 138.617 345.138 138.381 345.697C138.116 346.329 138.292 347.309 138.292 347.97C138.292 353.102 138.333 358.203 138.738 363.324C139.972 378.925 141.1 394.486 141.1 410.145C141.1 412.778 141.215 415.321 140.699 417.9" stroke="white" stroke-width="73" stroke-linecap="round"/>
<path d="M146.315 228.166C146.315 251.951 144.609 275.644 144.332 299.41C143.908 335.639 144.519 371.862 146.315 408.049C146.859 419.012 147.091 430.109 148.9 440.963C149.237 442.983 148.996 442.672 147.919 441.164" stroke="white" stroke-width="73" stroke-linecap="round"/>
<path d="M157.145 232.178C157.145 252.431 156.633 272.708 158.75 292.881C160.272 307.386 162.483 321.694 164.967 336.047C165.757 340.609 166.371 345.099 166.371 349.73C166.371 352.865 166.813 355.915 167.173 359.023C167.992 366.073 168.521 373.136 169.669 380.149C172.551 397.743 175.094 415.706 179.965 432.874C182.3 441.105 184.596 449.405 186.227 457.811C187.861 466.233 195.229 490.846 192.043 482.881" stroke="white" stroke-width="73" stroke-linecap="round"/>
<path d="M85.0871 414.113C84.843 418.75 83.5698 423.172 83.3299 427.732C83.0644 432.775 80.694 437.795 80.694 442.888C80.694 451.225 77.9694 459.776 75.4468 467.659C73.254 474.512 71.5789 481.715 70.3949 488.819C68.2255 501.835 68.0104 515.204 66.4167 528.307C65.7394 533.877 65.4609 539.475 64.6839 545.025C64.44 546.768 64.8036 550.812 63.5613 552.054" stroke="white" stroke-width="37" stroke-linecap="round"/>
<path d="M210.288 420.702C210.86 424.134 213.529 427.927 215.023 431.05C216.203 433.518 216.553 436.227 217.414 438.811C218.105 440.883 218.209 442.967 218.732 445.059C221.035 454.27 225.421 462.678 227.079 472.003C230.015 488.517 235.47 504.394 238.403 520.912C239.454 526.831 241.874 532.498 242.699 538.435C243.454 543.876 244.54 549.363 245.871 554.689" stroke="white" stroke-width="37" stroke-linecap="round"/>
<path d="M92.9944 405.766C92.9944 399.99 92.9944 394.214 92.9944 388.438C92.9944 382.512 94.5116 376.582 95.2885 370.72C96.4375 362.05 99.5542 353.688 101.561 345.216C102.524 341.15 103.371 337.041 104.221 332.94C105.034 329.019 106.194 324.937 106.613 320.956C107.062 316.691 108.873 312.637 109.249 308.412C109.692 303.424 111.066 298.362 111.884 293.402C112.563 289.29 112.197 285.131 112.861 281.004C113.293 278.315 113.958 275.679 114.74 273.073C115.903 269.195 117.712 265.463 119.304 261.748C120.943 257.922 121.861 253.837 122.867 249.814C124.89 241.72 125.492 231.813 131.653 225.652" stroke="white" stroke-width="37" stroke-linecap="round"/>
<path d="M149.664 251.132C149.664 255.075 149.071 258.915 148.395 262.798C146.055 276.241 143.548 289.638 141.708 303.165C138.6 326.017 135.626 349.434 137.437 372.526C138.455 385.503 143.54 398.916 151.226 409.476C152.263 410.9 156.473 418.136 158.841 415.553C162.393 411.678 165.437 406.722 168.31 402.349C174.604 392.771 179.343 382.084 180.659 370.622C181.856 360.206 180.415 350.034 180.415 339.651C180.415 335.374 180.263 331.065 180.415 326.789C180.483 324.892 183.623 330.625 183.637 330.645C192.629 344.133 201.062 357.745 207.994 372.379C208.692 373.853 208.34 376.411 208.726 378.066C209.048 379.447 209.384 380.59 209.409 381.995C209.568 390.723 212.372 399.013 214.242 407.426C215.775 414.327 216.438 421.112 216.438 428.17" stroke="white" stroke-width="37" stroke-linecap="round"/>
<path d="M172.069 220.82C172.069 225.294 172.783 228.52 174.485 232.681C176.442 237.465 179.036 242.824 179.952 247.862C180.862 252.866 181.322 257.991 182.417 262.993C183.774 269.2 184.322 275.726 186.126 281.859C187.66 287.074 189.783 292.269 191.056 297.503C191.676 300.051 192.298 302.463 192.716 305.166C193.989 313.409 196.888 321.296 199.647 329.133C200.828 332.489 201.981 335.445 201.941 338.992C201.893 343.312 201.131 347.242 202.039 351.537C202.901 355.618 204.497 359.467 205.651 363.447C206.665 366.947 207.62 370.471 208.946 373.868C209.373 374.964 209.849 376.024 209.849 377.212" stroke="white" stroke-width="37" stroke-linecap="round"/>
<path d="M150.982 116.266C150.982 126.861 149.664 137.272 149.664 147.847C149.664 160.575 147.314 173.512 146.15 186.188C144.886 199.945 143.435 213.677 142.44 227.458C142.172 231.177 142.399 235.309 141.732 238.977C141.588 239.772 140.286 237.139 140.219 236.903C138.464 230.661 138.108 223.782 137.608 217.354C136.972 209.184 137.364 200.899 137.364 192.704C137.364 180.613 138.934 168.502 139.804 156.437C140.376 148.521 141.428 140.611 142.88 132.813C143.422 129.901 143.983 127.003 144.564 124.1C144.703 123.401 144.651 121.978 145.174 121.391C145.716 120.781 145.129 123.051 145.369 123.831C145.695 124.89 145.745 126.048 146.248 127.053C147.354 129.267 148.946 131.428 150.201 133.594C153.698 139.628 156.536 145.977 158.987 152.484C162.88 162.814 164.638 173.727 167.676 184.357C169.555 190.936 172.978 196.956 173.826 203.735C174.926 212.539 175.22 221.396 176.462 230.191C178.057 241.491 180.052 252.662 182.173 263.871" stroke="white" stroke-width="37" stroke-linecap="round"/>
<path d="M89.7556 305.438C89.7826 304.899 90.0158 304.419 90.2573 303.945C90.7511 302.976 91.0556 301.948 91.4601 300.941C92.4548 298.467 93.4978 296.019 94.851 293.718C95.253 293.035 95.3786 292.498 95.6549 291.73C96.5792 289.159 97.4093 286.575 98.1935 283.957C98.9008 281.595 99.6777 279.236 100.152 276.812C100.184 276.65 100.312 276.119 100.134 276.516C99.7 277.48 99.0254 278.316 98.5924 279.29C96.5671 283.848 95.5818 288.823 94.1136 293.573C93.1888 296.565 92.3405 299.69 91.72 302.761C91.4836 303.931 91.17 305.11 91.17 306.309" stroke="white" stroke-width="5" stroke-linecap="round"/>
<path d="M116.302 199.033C116.215 201.969 115.132 204.853 114.32 207.646C113.314 211.102 112.495 214.557 111.684 218.061C110.678 222.408 109.632 226.799 108.898 231.201C108.063 236.212 107.821 241.255 107.296 246.3C106.934 249.781 106.689 253.294 105.942 256.72C105.593 258.323 104.934 261.171 103.331 262.112C101.463 263.208 101.42 258.032 101.512 257.071C101.58 256.352 101.885 255.636 102.074 254.943C102.443 253.589 102.982 252.327 103.464 251.014C104.378 248.526 104.898 245.954 105.555 243.398C106.375 240.215 106.493 236.819 106.903 233.564C107.041 232.472 107.598 229.236 107.598 230.337C107.598 231.658 107.194 233.012 106.94 234.302C106.432 236.88 105.861 239.441 105.422 242.032C105.044 244.273 104.858 246.552 104.395 248.778C103.819 251.546 103.101 254.282 102.509 257.047C102.137 258.781 102.049 260.618 101.615 262.329C101.15 264.159 101.014 266.114 100.303 267.872C100.212 268.098 99.0202 270.055 99.0094 270.018C98.9393 269.772 98.9858 269.325 99.0155 269.087C99.0789 268.58 99.3715 268.098 99.5716 267.636C100.234 266.109 100.719 264.558 101.143 262.946C102.156 259.095 103.036 255.197 103.766 251.28C104.157 249.187 104.655 247.114 104.963 245.006C105.434 241.784 105.478 238.51 105.834 235.275C106.195 231.991 106.783 228.727 107.103 225.441C107.301 223.407 107.562 221.327 108.203 219.378C109.612 215.095 111.38 210.95 112.766 206.655C114.131 202.429 115.994 198.368 117.487 194.185C118.029 192.669 118.533 191.145 118.998 189.604C119.107 189.244 119.179 189.095 119.506 188.891C120.052 188.549 120.656 188.211 121.283 188.044C121.898 187.881 121.427 188.768 121.367 189.024C120.615 192.233 120.804 195.581 120.412 198.84C119.997 202.294 119.218 205.685 118.593 209.103C118.343 210.472 118.056 211.829 117.892 213.213C117.883 213.287 117.895 214.197 117.771 214.247C117.699 214.275 117.711 213.437 117.711 213.431C117.657 211.644 117.608 209.864 117.608 208.075C117.608 203.805 118.095 199.634 118.829 195.431C119.241 193.07 119.581 190.74 119.723 188.347C119.735 188.149 119.831 185.479 119.457 186.775C119.208 187.64 118.748 188.254 118.333 189.06C116.028 193.54 114.958 198.403 114.151 203.337C113.984 204.357 114.018 202.305 114.018 202.164C114.018 198.27 114.075 194.413 114.731 190.565C114.968 189.172 115.708 188.103 116.296 186.854C116.385 186.665 116.629 185.683 116.629 186.412C116.629 189.336 116.52 192.269 116.52 195.201C116.52 198.179 116.52 201.157 116.52 204.134C116.52 205.247 116.52 206.359 116.52 207.471C116.52 207.666 116.46 207.982 116.544 208.172C116.612 208.324 116.713 208.705 116.901 208.371C117.62 207.093 119.28 206.817 120.618 206.607C121.914 206.403 123.37 206.286 124.662 206.588C126.671 207.059 128.518 208.352 130.265 209.393C132.943 210.988 135.59 212.642 138.316 214.156C141.856 216.122 145.605 217.655 149.353 219.173C153.315 220.777 157.344 222.047 161.55 222.811C162.215 222.932 162.484 223.007 163.134 222.751C163.875 222.46 164.617 222.151 165.382 221.929C165.593 221.868 166.672 221.78 166.773 221.554C166.845 221.391 165.473 221.337 165.394 221.337C164.547 221.329 163.889 221.433 163.086 221.663" stroke="white" stroke-width="5" stroke-linecap="round"/>
<path d="M116.302 186.304C116.302 185.435 116.274 184.561 116.308 183.692C116.353 182.585 116.817 181.621 117.282 180.64C118.906 177.21 119.415 173.381 120.497 169.772C121.824 165.351 123.73 160.929 124.402 156.348C124.491 155.737 125.079 153.248 123.707 154.208C123.204 154.56 123.211 154.899 122.987 155.411C122.013 157.639 121.943 160.207 121.331 162.537C120.734 164.813 120.127 167.206 120.11 169.573C120.083 173.292 120.002 177.009 120.002 180.731C120.002 185.067 119.975 189.373 119.723 193.702C119.545 196.782 119.349 206.035 119.349 202.95C119.349 197.509 120.538 192.117 122.226 186.956C124.239 180.8 126.876 174.826 130.12 169.222" stroke="white" stroke-width="5" stroke-linecap="round"/>
<path d="M58.0953 464.501C58.0953 462.018 58.5375 459.755 59.0806 457.339C59.8299 454.004 60.6406 450.603 61.9033 447.42C63.5175 443.35 64.8063 439.168 66.1404 434.999C66.3212 434.434 66.5922 433.895 66.7508 433.324C66.7973 433.157 66.8022 432.954 66.9019 432.805C67.2481 432.285 66.6297 434.023 66.4607 434.624C65.6487 437.511 65.0648 440.475 64.321 443.382C63.0436 448.376 61.7645 453.393 60.6823 458.433C59.6952 463.029 59.086 467.691 58.325 472.329C57.754 475.808 57.0607 479.303 56.7414 482.815C56.5096 485.366 56.1424 487.891 55.8347 490.431C55.6458 491.992 55.5478 493.587 55.2666 495.134C55.1765 495.629 55.1669 496.202 55.0248 496.681C54.943 496.957 54.9402 497.074 54.9402 496.705" stroke="white" stroke-width="5" stroke-linecap="round"/>
<path d="M41.5579 553.063C41.5579 551.573 41.5424 550.081 41.5579 548.591C41.5723 547.215 41.9748 545.814 42.2651 544.474C42.541 543.201 42.8554 541.937 43.1657 540.672C43.8984 537.688 44.5618 534.695 45.3175 531.715C45.9531 529.209 46.5848 526.663 47.1308 524.135C47.9581 520.305 48.7112 516.452 49.7541 512.675C50.3216 510.619 50.429 507.745 52.0026 506.171C52.2137 505.96 51.8331 506.193 51.791 506.214C51.6739 506.272 51.782 505.952 51.785 505.821C51.792 505.503 51.8612 505.178 51.9179 504.866C52.2232 503.187 52.1114 501.461 52.1114 499.752C52.1114 499.041 52.2201 498.346 52.2201 497.637C52.2201 497.509 52.2201 497.485 52.2201 497.649C52.2201 498.194 52.1484 498.681 52.0026 499.208C51.6406 500.518 51.1876 501.79 50.9206 503.125C50.697 504.243 50.7506 505.345 50.6728 506.474C50.398 510.458 49.609 514.379 49.609 518.381C49.609 521.572 49.609 524.764 49.609 527.955C49.609 530.5 49.8075 533.182 49.1496 535.668C48.7704 537.1 48.2732 538.586 47.6567 539.935C47.546 540.177 47.4303 540.494 47.2396 540.685C46.8499 541.074 46.6816 539.198 46.6775 539.065C46.6012 536.586 48.0247 534.191 48.5089 531.787C48.9502 529.596 49.2626 527.377 49.5606 525.163C49.8449 523.051 50.4123 520.995 50.8058 518.901C51.0556 517.571 51.217 516.24 51.5492 514.924C52.0668 512.874 52.7435 510.869 53.3444 508.843C53.554 508.136 53.6238 507.331 54.2873 506.933" stroke="white" stroke-width="5" stroke-linecap="round"/>
<path d="M235.106 429.039C235.106 431.717 235.512 434.555 236.064 437.165C236.281 438.191 238.782 448.838 238.889 448.795C239.03 448.738 238.934 448.123 238.933 448.109C238.753 445.83 238.487 443.555 238.262 441.28C237.929 437.917 237.796 434.55 237.311 431.207C237.219 430.575 237.245 429.901 236.994 429.304C236.971 429.252 236.845 428.651 236.831 429.068C236.776 430.716 237.5 432.291 238.026 433.817C238.769 435.972 239.548 438.105 240.091 440.322C240.603 442.416 241.006 444.523 241.544 446.612C241.99 448.348 242.075 450.135 242.134 451.929C242.204 454.077 242.359 456.227 242.406 458.374C242.455 460.572 242.967 462.879 243.395 465.026C243.766 466.892 244.166 468.821 244.781 470.623C244.878 470.906 245.127 471.327 245.187 471.597C246.004 475.276 247.914 478.887 247.981 482.71C248.025 485.19 248.8 487.434 249.375 489.797C249.821 491.629 250.393 493.464 250.504 495.35C250.537 495.922 250.239 500.984 251.433 500.984" stroke="white" stroke-width="5" stroke-linecap="round"/>
<path d="M219.973 349.131C219.973 350.669 219.827 352.333 220.371 353.806C220.547 354.282 220.685 354.792 220.932 355.237C221.152 355.633 221.5 355.684 221.773 356.048C222.171 356.579 222.657 357.379 222.761 358.054C222.926 359.131 222.902 360.531 223.358 361.535C223.5 361.846 223.454 362.257 223.513 362.589C223.724 363.78 224.051 364.991 224.413 366.144C224.662 366.94 224.885 367.561 224.885 368.378" stroke="white" stroke-width="5" stroke-linecap="round"/>
<path d="M202.643 271.359C202.464 271.403 202.562 271.923 202.568 272.003C202.745 274.666 203.336 277.359 203.851 279.971C204.482 283.167 205.482 286.242 206.264 289.397C206.37 289.825 206.484 290.243 206.629 290.661C206.656 290.739 206.684 290.818 206.714 290.895C206.76 291.018 206.778 291.061 206.749 290.875C206.487 289.209 206.06 287.561 205.74 285.905C205.133 282.773 204.606 279.631 204.151 276.474C203.941 275.017 203.733 273.556 203.472 272.108C203.429 271.873 203.362 271.159 203.362 271.399C203.362 271.881 203.606 272.405 203.761 272.842C204.606 275.209 205.49 277.559 206.294 279.941C206.753 281.301 207.211 282.662 207.658 284.027C207.659 284.029 207.78 284.533 207.748 284.167C207.692 283.541 207.597 282.918 207.493 282.298C207.119 280.068 206.706 277.764 206.019 275.605C205.987 275.504 205.969 275.374 205.969 275.545C205.969 276.014 205.974 276.482 206.039 276.948C206.245 278.415 206.704 279.852 207.048 281.289C207.528 283.29 207.979 285.296 208.467 287.294C209.338 290.858 210.166 294.505 211.344 297.984C212.091 300.188 211.904 302.633 211.904 304.932C211.904 305.274 211.904 305.615 211.904 305.956C211.904 306.174 211.909 306.059 211.864 305.896C211.329 303.966 210.53 302.08 209.846 300.202C207.211 292.968 204.392 285.713 202.433 278.262C201.198 273.569 199.986 268.687 199.625 263.826C199.386 260.599 199.406 250.884 199.406 254.12C199.406 256.125 200.514 258.231 201.134 260.089C202.572 264.405 203.79 268.761 204.98 273.147C205.295 274.307 205.734 275.472 205.969 276.649C206.049 277.046 206.052 276.46 206.044 276.379C205.863 274.471 205.19 272.556 204.756 270.699C203.905 267.061 203.139 263.396 202.503 259.715C202.169 257.783 201.908 255.824 201.429 253.92C201.194 252.991 200.826 252.113 200.535 251.203C200.218 250.215 200.022 249.176 199.77 248.17C199.382 246.619 199.102 244.527 198.077 243.215C197.888 242.974 197.967 243.544 197.967 243.68C197.967 244.43 198.301 245.183 198.511 245.888C199.04 247.652 199.451 249.43 199.85 251.228C200.449 253.924 200.912 256.625 201.294 259.36C201.376 259.951 201.467 260.556 201.474 261.148C201.502 263.746 201.654 266.339 202.103 268.901C202.646 271.998 203.563 274.972 203.901 278.102" stroke="white" stroke-width="5" stroke-linecap="round"/>
<path d="M191.583 203.202C191.583 204.837 191.583 206.472 191.583 208.108C191.583 209.939 191.894 211.61 192.192 213.413C192.948 217.977 193.891 222.526 195 227.02C195.597 229.444 196.179 231.873 196.748 234.303C197.15 236.02 197.803 237.672 198.217 239.388C198.829 241.932 199.226 249.787 199.226 247.171" stroke="white" stroke-width="5" stroke-linecap="round"/>
<path d="M180.164 154.289C180.164 153.254 180.352 156.355 180.573 157.366C180.995 159.289 181.333 161.223 181.682 163.16C182.161 165.817 182.764 168.45 183.266 171.103C183.634 173.052 184.058 174.986 184.659 176.877C186.007 181.117 187.493 185.296 188.756 189.566C189.935 193.555 191.115 197.556 192.122 201.584" stroke="white" stroke-width="5" stroke-linecap="round"/>
<path d="M170.273 101.777C170.273 105.832 170.962 109.869 171.482 113.886C171.88 116.964 172.258 120.035 172.88 123.077C173.169 124.488 173.444 125.894 173.69 127.313C174.517 132.097 176.302 136.647 177.896 141.21C178.555 143.099 178.977 145.001 179.424 146.945C179.885 148.95 180.343 151.034 180.343 153.099C180.343 153.362 180.43 153.697 180.283 153.249C179.588 151.125 178.306 149.172 177.446 147.105C176.613 145.102 175.905 143.036 175.598 140.881C175.304 138.817 175.308 136.688 175.308 134.607C175.308 132.852 175.308 131.097 175.308 129.342C175.308 128.224 175.336 127.117 175.123 126.015C174.924 124.981 174.591 124.001 174.324 122.987C174.05 121.945 173.83 120.894 173.455 119.88C172.624 117.635 171.68 115.435 170.817 113.202C170.459 112.275 170.135 111.341 169.738 110.429C169.349 109.535 169.463 110.341 169.463 110.889C169.463 116.746 169.987 122.565 170.847 128.357C172.03 136.323 173.952 144.091 175.932 151.885C176.618 154.584 177.374 157.26 178.17 159.928C178.207 160.051 178.367 160.4 178.33 160.278C178.01 159.22 177.538 158.198 177.186 157.15C175.985 153.567 175.074 149.889 174.174 146.221C172.819 140.699 171.611 135.146 170.542 129.561C169.68 125.052 168.882 120.534 168.419 115.964C168.19 113.703 168.034 111.435 167.85 109.17C167.733 107.727 167.694 106.226 167.4 104.805C167.381 104.712 167.325 104.255 167.216 104.475" stroke="white" stroke-width="5" stroke-linecap="round"/>
<path d="M148.963 84.1544V84.0645" stroke="white" stroke-width="5" stroke-linecap="round"/>
<path d="M146.805 96.5623C146.805 90.5217 147.47 84.6076 148.343 78.6291C149.018 74.0088 149.682 69.4173 149.682 64.7421C149.682 63.8874 149.674 64.8647 149.622 65.1617C149.166 67.7981 148.526 70.4123 148.019 73.0393C146.619 80.2812 145.224 87.5563 144.507 94.9038C144.031 99.7865 143.838 104.678 143.838 109.58C143.838 110.662 143.827 107.415 143.863 106.333C144.02 101.59 144.985 96.9055 145.966 92.2763C147.231 86.303 148.79 80.394 149.877 74.383C150.35 71.7643 150.74 69.1327 150.831 66.4704C150.833 66.4101 150.904 63.5505 150.511 63.8729C150.073 64.2333 149.859 65.6992 149.742 66.1108C148.144 71.7543 146.985 77.5114 145.916 83.2747C143.992 93.6412 142.575 104.069 140.98 114.485C140.931 114.806 140.813 115.374 140.686 114.67C140.576 114.066 140.548 113.516 140.516 112.887C140.373 110.11 140.342 107.314 140.351 104.535C140.377 96.2256 141.247 88.0876 142.779 79.9228C143.585 75.6252 144.609 71.3809 145.536 67.1098C145.86 65.6157 146.929 61.1636 146.445 62.6141C145.856 64.3813 145.373 66.2247 144.877 68.019C143.525 72.9018 142.391 77.8521 141.285 82.7952C140.498 86.3121 139.82 89.8566 138.912 93.3453C138.668 94.2819 138.497 95.3603 138.128 96.2625C138.032 96.497 137.995 96.2424 137.993 96.1427C137.98 95.3586 138.039 94.5801 138.163 93.8048C139.011 88.4912 140.816 83.2865 142.359 78.1495C143.689 73.7237 145.157 69.3166 146.225 64.817C146.422 63.987 146.473 62.7191 146.945 61.9747C147.095 61.7371 146.861 62.5319 146.79 62.8039C146.483 63.9701 146.076 65.1006 145.686 66.2407C144.183 70.6333 142.82 75.0915 141.52 79.5482C140.161 84.2023 138.995 88.9288 137.833 93.635C136.8 97.8212 136.089 102.072 135.585 106.353C135.452 107.487 135.44 110.313 133.967 110.839C133.241 111.098 132.728 109.826 132.508 109.35C132.113 108.494 132.138 108.143 132.438 107.242C133.519 103.999 134.153 100.569 135.046 97.2616C135.544 95.4168 135.966 93.554 136.415 91.6968C136.902 89.6762 137.514 87.6836 137.993 85.6625C138.359 84.1201 138.612 82.5464 138.892 80.9868C139.525 77.4655 140.26 73.9273 141.32 70.5067C142.049 68.1552 142.443 65.7221 143.208 63.3833C143.567 62.2876 143.736 60.9938 144.487 60.0764C144.584 59.9577 144.656 59.8416 144.647 60.0764C144.635 60.3707 144.271 60.6814 144.127 60.9356C144.005 61.1519 143.97 61.3926 143.878 61.62C143.776 61.8692 143.564 62.0542 143.428 62.2844C143.208 62.6572 142.954 63.0112 142.739 63.3833C142.283 64.1705 142.574 62.2811 142.579 62.0346C142.591 61.3593 142.636 60.8558 142.958 60.2762C143.164 59.9064 143.397 59.8258 143.278 60.3262C142.973 61.6163 143.145 62.9775 143.428 64.2625C144.231 67.9095 146.103 71.3643 147.584 74.7627C149.51 79.1831 150.799 83.827 151.99 88.4898C152.835 91.7968 153.452 95.1668 154.388 98.4505C154.527 98.9402 154.744 100.424 154.807 99.9191C154.881 99.33 153.868 98.9749 153.489 98.7702C151.76 97.8387 149.671 96.9823 149.043 94.9438C148.293 92.5107 148.513 89.754 148.513 87.246C148.513 85.5486 148.466 83.8397 148.603 82.1458C148.633 81.7755 148.6 81.1314 148.828 80.802C148.933 80.6497 148.961 80.8641 148.963 80.9369C149.009 83.1794 148.963 85.4278 148.963 87.6706C148.963 91.4887 148.73 95.4374 149.522 99.1998C149.556 99.3622 149.802 101.028 150.042 100.429" stroke="white" stroke-width="5" stroke-linecap="round"/>
<path d="M146.535 40.364C146.339 40.3885 146.434 41.2398 146.425 41.3631C146.318 42.8252 145.851 44.2649 145.566 45.699C144.882 49.1334 144.588 52.6085 143.932 56.0493C143.353 59.0907 143.118 62.0257 143.118 65.1208C143.118 65.3341 143.014 65.9337 143.138 65.7602C143.347 65.4678 143.36 64.7371 143.428 64.4115C144.672 58.4544 145.697 52.4572 147.055 46.5232C147.821 43.1734 148.678 39.8565 149.582 36.5426C149.626 36.3818 149.755 35.9118 149.767 36.078C149.872 37.4959 149.749 38.9831 149.672 40.394C149.462 44.2529 149.099 48.1001 148.953 51.9632C148.8 56.0005 148.789 60.0421 148.783 64.0818C148.781 65.3793 148.759 66.681 148.803 67.9782C148.816 68.3623 148.858 69.4639 149.013 69.1121C149.396 68.2408 149.338 66.8043 149.407 65.9151C149.635 62.9866 149.666 60.0542 149.677 57.1183C149.694 52.4461 149.682 47.7737 149.682 43.1014C149.682 42.4324 149.681 42.6926 149.702 43.2014C149.808 45.7237 149.949 48.2472 150.142 50.7643C151.068 62.865 152.679 74.977 156.076 86.6507C156.301 87.4237 156.481 88.3356 156.855 89.0634C157.104 89.5478 156.878 87.971 156.815 87.4299C155.761 78.3447 154.054 69.334 152.859 60.2654C152.529 57.7611 152.356 55.2639 152.13 52.7524C151.917 50.3925 152.108 57.4913 152.12 59.8608C152.188 73.7053 152.307 87.8574 155.786 101.352C156.219 103.031 156.812 104.655 157.375 106.292C157.525 106.73 157.887 108.186 157.934 106.852C158.133 101.257 157.555 95.6684 157.035 90.1074C156.445 83.8011 156.062 77.4805 155.661 71.1602C155.63 70.6612 155.598 70.1623 155.532 69.6666C155.47 69.2011 155.528 70.6057 155.532 71.0753C155.562 74.9249 155.804 78.7507 156.266 82.5745C157.16 89.9735 158.453 97.4159 160.772 104.514C161.46 106.623 162.264 108.722 163.149 110.758C163.187 110.844 163.592 111.939 163.759 111.947C163.922 111.955 163.8 111.621 163.799 111.457C163.794 110.751 163.747 109.419 163.719 108.83C163.509 104.413 163.061 100.021 162.53 95.6323C161.853 90.0393 161.096 84.4578 160.357 78.8729C160.255 78.0995 160.143 77.3362 159.947 76.5801C159.816 76.0724 159.825 76.2226 159.843 76.69C159.915 78.6105 160.374 80.4952 160.782 82.3647C161.682 86.498 162.603 90.6312 163.639 94.7331C164.383 97.6811 165.199 100.612 166.037 103.535C166.407 104.828 166.74 106.156 167.201 107.421C167.207 107.437 167.327 107.809 167.395 107.826C167.473 107.845 167.435 107.671 167.44 107.591C167.474 107.069 167.476 106.499 167.48 105.988C167.525 100.382 166.445 95.0532 165.188 89.6129C164.452 86.4298 163.734 83.1838 162.725 80.0718C162.711 80.0284 162.63 79.716 162.63 79.7421C162.63 80.4835 162.96 81.2481 163.159 81.9451C164.174 85.4926 165.1 89.0596 166.257 92.5651C166.746 94.0473 167.22 95.5164 167.575 97.0359C167.864 98.27 168.124 99.526 168.494 100.737C168.574 100.997 168.787 101.287 168.944 101.507C169.404 102.15 168.711 99.942 168.569 99.1639C168.236 97.3303 168.271 95.3527 167.685 93.5742C167.358 92.581 166.968 91.5813 166.541 90.6269C165.787 88.9405 165.2 87.2465 164.698 85.4618C164.059 83.1896 163.627 80.8068 163.174 78.4883C162.99 77.5416 162.742 76.5918 162.59 75.641C162.263 73.5922 162.172 71.4932 162.02 69.4268C161.899 67.7704 161.786 66.115 161.371 64.5014C161.205 63.8569 161.544 65.3939 161.611 65.5604C162.667 68.1826 164.203 70.6801 164.968 73.4131C165.311 74.6381 165.501 75.9129 165.817 77.1596C166.686 80.592 167.844 83.9235 168.315 87.4499C168.861 91.5485 169.043 95.7555 169.918 99.8033C170.083 100.565 170.632 101.452 170.632 102.226" stroke="white" stroke-width="5" stroke-linecap="round"/>
<path d="M146.085 38.9264C146.085 37.6592 146.085 36.3921 146.085 35.125C146.085 33.8012 146.353 32.8051 146.76 31.5533C147.165 30.3077 147.892 29.0199 148.598 27.9167C148.987 27.3097 149.709 26.7864 150.326 26.4231C151.088 25.9749 151.722 25.9785 152.579 25.9785C153.397 25.9785 154.342 26.0128 154.717 26.8577C155.299 28.1674 156.056 29.3897 156.356 30.804C157.405 35.7586 158.439 40.7611 159.723 45.6601C160.847 49.9512 161.64 54.2171 162.185 58.613C162.53 61.3895 162.966 64.1383 163.394 66.9002C163.592 68.1755 163.642 69.6321 163.524 70.9264C163.492 71.284 163.488 71.5824 163.214 71.7956C161.725 72.954 160.831 68.955 160.702 68.194C160.369 66.2259 160.017 64.3009 159.883 62.3045C159.783 60.8222 159.751 59.3233 159.423 57.8687C159.115 56.5029 158.637 55.187 158.409 53.8025C158.174 52.3778 158.097 50.9225 157.954 49.4865C157.734 47.2664 157.454 45.0526 157.235 42.8327C157.009 40.5494 157.064 38.2516 156.83 35.9692C156.698 34.6767 156.556 33.3855 156.426 32.0928C156.26 30.4417 156.246 28.2213 154.358 27.547C153.225 27.1425 151.725 27.4793 150.871 28.2963C150.229 28.9103 150.442 29.7556 150.217 30.5742C149.875 31.8108 149.451 33.024 149.113 34.2608C149.005 34.6527 148.956 35.053 148.873 35.4496C148.842 35.5961 148.709 36.038 148.933 35.6545C150.195 33.49 151.436 31.3908 152.909 29.3653C153.044 29.1798 152.821 30.3121 152.809 30.3544C151.642 34.5467 151.209 39.0119 150.741 43.3223C150.404 46.4259 150.042 49.6018 150.042 52.7285C150.042 52.7924 149.965 53.58 150.082 53.0681C150.581 50.8841 151.341 48.7506 152.05 46.6292C153.192 43.212 154.395 39.8115 155.377 36.3438C155.389 36.3017 155.517 35.9012 155.517 36.2139C155.517 37.1918 155.211 38.2524 155.067 39.2061C153.83 47.373 153.099 55.6934 153.099 63.9579C153.099 64.6916 153.063 65.4376 153.104 66.1709C153.151 67.0221 153.523 64.5176 153.698 63.6832C154.587 59.4411 155.699 55.2504 156.586 51.0101C156.685 50.5332 156.801 50.0498 156.87 49.5664C156.934 49.1213 156.879 50.4658 156.895 50.9152C157.051 55.1039 157.41 59.2905 157.794 63.4634C157.991 65.5935 158.227 67.7072 158.659 69.8025C158.668 69.8462 158.899 70.7866 158.923 70.6966C159.032 70.2995 159.014 69.8116 159.053 69.4078C159.211 67.8092 159.344 66.2088 159.383 64.6023C159.385 64.5088 159.363 61.7338 159.013 62.1147C158.54 62.63 158.48 63.8296 158.384 64.4425C157.874 67.691 157.744 70.9912 157.655 74.2733C157.611 75.8649 157.595 77.4567 157.595 79.0488C157.595 79.2272 157.46 80.1545 157.615 80.3376C157.807 80.5653 157.889 79.8041 157.974 79.5184C158.459 77.8994 158.804 76.2273 159.058 74.558C159.358 72.5855 159.552 70.5904 159.663 68.5986" stroke="white" stroke-width="5" stroke-linecap="round"/>
<path d="M157.734 27.9539L156.265 28.2553L156.265 28.2553L157.734 27.9539ZM146.22 27.9445L147.689 28.2483L147.689 28.2483L146.22 27.9445ZM156.265 28.2553L270.531 585.301L273.469 584.699L159.204 27.6525L156.265 28.2553ZM32.4689 585.304L147.689 28.2483L144.751 27.6406L29.5311 584.696L32.4689 585.304ZM159.204 27.6525C157.592 19.7986 146.375 19.7893 144.751 27.6406L147.689 28.2483C148.653 23.5895 155.309 23.5949 156.265 28.2553L159.204 27.6525Z" fill="#F84F0A"/>
<path d="M80 353L90 306H215L224 353H80Z" fill="#F84F0A"/>
<path d="M64 429L76 373H228L239 429H64Z" fill="#F84F0A"/>
<path d="M72.9491 514.618L78.4577 515.103C79.2149 516.793 80.4873 518.208 82.275 519.347C84.1035 520.452 86.2356 521.112 88.6714 521.327C91.4819 521.574 93.8566 521.198 95.7953 520.198C97.7374 519.16 98.7877 517.742 98.9465 515.943C99.1019 514.182 98.5839 512.777 97.3925 511.728C96.2011 510.679 94.2508 509.884 91.5417 509.344L85.0808 508.095C81.5505 507.444 79.0029 506.144 77.4378 504.193C75.9102 502.246 75.2688 499.886 75.5136 497.113C75.8079 493.778 77.3388 491.194 80.1064 489.36C82.9115 487.53 86.5062 486.808 90.8906 487.194C95.0877 487.564 98.4102 488.857 100.858 491.074C103.343 493.294 104.973 495.798 105.747 498.585L100.238 498.1C99.6274 496.46 98.4283 495.071 96.6406 493.932C94.8529 492.792 92.7411 492.115 90.3053 491.901C87.4948 491.654 85.2122 492.057 83.4575 493.111C81.7028 494.165 80.7478 495.572 80.5923 497.334C80.298 500.669 82.4356 502.764 87.0052 503.619L93.9671 504.969C97.3816 505.647 99.965 506.97 101.717 508.937C103.507 510.907 104.278 513.297 104.03 516.108C103.766 519.106 102.223 521.613 99.401 523.631C96.5794 525.648 92.864 526.454 88.2547 526.048C83.7579 525.652 80.2635 524.382 77.7715 522.236C75.2828 520.053 73.6753 517.514 72.9491 514.618Z" fill="#F84F0A"/>
<path d="M113.623 489.568L144.639 490.65L144.474 495.387L131.503 494.934L130.36 527.643L125.284 527.466L126.428 494.757L113.457 494.305L113.623 489.568Z" fill="#F84F0A"/>
<path d="M157.729 496.183C161.325 492.37 165.849 490.399 171.302 490.267C176.755 490.135 181.37 491.887 185.145 495.521C188.921 499.155 190.876 503.736 191.009 509.265C191.143 514.793 189.412 519.463 185.817 523.275C182.221 527.087 177.697 529.059 172.244 529.191C166.791 529.323 162.176 527.571 158.401 523.937C154.625 520.303 152.67 515.722 152.537 510.193C152.403 504.665 154.134 499.995 157.729 496.183ZM181.617 498.993C178.841 496.237 175.441 494.908 171.417 495.006C167.393 495.103 164.061 496.594 161.421 499.48C158.781 502.328 157.512 505.859 157.614 510.071C157.716 514.283 159.155 517.766 161.931 520.522C164.706 523.239 168.105 524.55 172.129 524.452C176.153 524.355 179.486 522.883 182.126 520.034C184.765 517.148 186.034 513.599 185.932 509.387C185.83 505.175 184.392 501.71 181.617 498.993Z" fill="#F84F0A"/>
<path d="M227.784 489.655C230.122 491.379 231.44 493.966 231.737 497.414C232.035 500.862 231.181 503.654 229.175 505.79C227.166 507.888 224.362 509.092 220.764 509.402L207.665 510.529L208.993 525.933L203.933 526.368L200.714 489.038L218.874 487.476C222.472 487.167 225.442 487.893 227.784 489.655ZM225.164 502.623C226.344 501.427 226.849 499.836 226.678 497.849C226.506 495.863 225.737 494.381 224.369 493.404C223.038 492.423 221.342 492.021 219.281 492.199L206.181 493.325L207.257 505.806L220.357 504.679C222.418 504.502 224.021 503.817 225.164 502.623Z" fill="#F84F0A"/>
</svg>
