<svg width="464" height="351" viewBox="0 0 464 351" fill="none" xmlns="http://www.w3.org/2000/svg">
<path d="M306 8.00044C421.56 48.0211 443.347 167.229 440 222C440.258 227.26 445.315 240.61 462 252C458.358 268.182 423.237 295.897 317 304L241 338C181.521 375.327 20.4492 308.775 5.00009 298C-7.35921 289.381 26.3324 263.673 45.0001 252L62.0001 235C61.665 145.438 101.038 -4.29904 261.419 2.53459C275.155 2.63107 289.736 4.31553 305.204 7.81866C305.469 7.87852 305.734 7.93912 306 8.00044Z" fill="white"/>
<path d="M306 8.00044C253.087 -0.850276 146.253 37.0398 141 259M306 8.00044C421.56 48.0211 443.347 167.229 440 222M306 8.00044C159.233 -25.8632 118.446 163.847 116 263L102 288.848M306 8.00044C136.06 -31.0967 72.8145 148.951 62.0001 244M306 8.00044C108.177 -30.7633 61.6359 137.659 62.0001 235M141 259C211.551 273.752 369.552 286.649 440 222M141 259L102 288.848M440 222C440.258 227.26 445.315 240.61 462 252C458.358 268.182 423.237 295.897 317 304M102 288.848L100.234 288.292L98.5 287.732L96.7726 287.159L95.0819 286.584L93.4115 286L91.6582 285.371L89.9572 284.743L88.2599 284.099L84.8571 282.75L81.5 281.336L78.1773 279.847L75 278.327L71.8339 276.705L68.7403 275L65.8192 273.263L63 271.446L60.2317 269.5L57.5 267.384L55.1505 265.367L53 263.314L62.0001 244M62.0001 244C61.8909 241.003 62.0119 238.157 62.0001 235M45.0001 252C61.3762 288.635 152.97 302.692 197 305C244.218 307.03 284.281 306.496 317 304M45.0001 252L62.0001 235M45.0001 252C26.3324 263.673 -7.35921 289.381 5.00009 298C20.4492 308.775 181.521 375.327 241 338L317 304" stroke="#F84F0A" stroke-width="3"/>
<path d="M172.435 230.162C169.907 229.569 167.568 229.548 165.475 230.907C163.388 232.241 161.672 233.786 161.036 236.411C160.4 239.035 160.643 242.224 161.887 244.365C163.138 246.481 164.756 247.218 167.285 247.81C170.041 248.455 172.968 247.729 175.133 245.964L179.323 247.527C177.759 249.459 175.901 250.349 173.677 251.149C171.452 251.949 169.295 252.498 166.716 251.894C163.025 251.029 159.901 248.815 158.017 245.785C156.138 242.73 156.056 239.542 156.952 235.842C157.849 232.142 159.989 229.012 163.061 227.142C166.139 225.248 169.312 225.213 173.004 226.078C175.558 226.676 177.783 227.692 179.396 229.416C181.04 231.122 181.513 232.752 182.023 235.169L177.939 234.601C176.823 232.041 175.192 230.807 172.435 230.162Z" fill="#F84F0A"/>
<path d="M186.462 229.666L207.982 233.396L207.307 236.486L199.139 235.349L195.409 256.868L191.325 256.299L195.056 234.78L185.894 233.749L186.462 229.666Z" fill="#F84F0A"/>
<path d="M231.49 236.914C232.862 238.476 234.318 240.44 234.117 242.667C233.916 244.894 232.306 246.734 230.672 248.064C229.066 249.371 226.693 250.05 223.818 249.804L215.757 249.661L214.833 259.817L210.749 259.248L213.06 233.858L225.205 234.57C228.079 234.816 230.146 235.328 231.49 236.914ZM228.364 245.294C229.253 244.7 229.034 244.428 229.145 243.199C229.257 241.971 229.491 239.933 228.72 239.222C227.977 238.488 227.106 238.673 225.63 238.547L217.463 237.41L216.326 245.577L224.387 245.72C225.863 245.847 227.503 245.865 228.364 245.294Z" fill="#F84F0A"/>
<path d="M241.752 238.832C244.323 236.279 247.528 234.761 251.376 234.785C255.224 234.809 258.358 236.214 260.857 238.799C263.382 241.383 264.938 244.697 264.905 248.422C264.871 252.147 263.462 255.35 260.891 257.904C258.346 260.457 255.115 261.975 251.267 261.951C247.419 261.927 244.311 260.522 241.786 257.937C239.287 255.353 237.705 252.038 237.739 248.313C237.772 244.589 239.207 241.386 241.752 238.832ZM244.556 255.629C246.282 257.438 248.241 257.958 250.841 257.974C253.441 257.99 255.857 257.028 257.589 255.24C259.347 253.452 259.909 251.626 259.933 248.955C259.957 246.283 259.919 243.91 258.194 242.101C256.494 240.292 253.408 238.885 250.808 238.869C248.208 238.853 246.813 239.709 245.055 241.496C243.322 243.284 241.846 246.21 241.822 248.882C241.798 251.554 242.856 253.82 244.556 255.629Z" fill="#F84F0A"/>
<path d="M270.588 235.745L274.565 235.32L275.593 254.318L288.485 233.829L292.463 233.404L295.23 259.256L290.259 259.788L289.124 239.795L276.232 260.284L272.254 260.71L270.588 235.745ZM272.612 226.477L276.59 226.051C276.796 227.04 277.049 228.324 277.903 228.928C278.756 229.506 279.852 229.691 280.993 229.603C282.134 229.515 283.115 228.992 283.869 228.289C284.622 227.561 285.592 227.097 285.645 226.088L288.628 225.768C288.624 227.753 287.555 229.639 286.177 231.059C284.798 232.455 283.412 232.423 281.312 232.586C279.212 232.749 277.704 232.296 276.128 231.13C274.55 229.938 272.919 228.437 272.612 226.477Z" fill="#F84F0A"/>
<path d="M309.755 244.627L324.953 255.068L318.987 255.707L305.991 247.041L308.156 257.872L303.185 258.404L299.423 232.659L303.4 232.233L305.565 243.064L315.225 229.961L320.197 229.429L309.755 244.627Z" fill="#F84F0A"/>
<path d="M343.279 228.969L329.465 231.454L331.205 238.308L344.024 235.93L345.338 238.806L331.63 242.285L333.37 249.139L347.077 245.66L347.503 249.637L330.813 253.435L324.174 229.003L341.859 225.098L343.279 228.969Z" fill="#F84F0A"/>
<path d="M376.801 241.472L372.93 242.892L365.616 221.549L353.01 225.916L359.222 246.371L355.351 247.791L347.719 223.465L369.168 217.146L376.801 241.472Z" fill="#F84F0A"/>
<path d="M387.917 223.185L404.784 230.431L399.031 233.058L385.253 226.487L389.407 237.105L384.542 238.632L375.915 214.413L379.786 212.993L383.833 222.616L390.404 208.839L395.269 207.312L387.917 223.185Z" fill="#F84F0A"/>
<path d="M410.893 221.731L411.532 227.697L407.767 230.111L406.775 202.058L410.54 199.643L431.667 218.501L427.796 219.921L422.292 215.482L410.893 221.731ZM418.99 212.818L410.184 205.715L410.467 217.754L418.99 212.818Z" fill="#F84F0A"/>
</svg>
