<svg width="309" height="232" viewBox="0 0 309 232" fill="none" xmlns="http://www.w3.org/2000/svg">
<path d="M298.715 127.779L254.98 127.779L10.285 127.779L10.285 3.28491L298.715 3.28494L298.715 127.779Z" stroke="#F84F0A" stroke-width="3" stroke-miterlimit="10"/>
<path d="M179.51 172.014L255.461 172.014L255.461 127.801L179.51 127.801L179.51 172.014Z" stroke="#F84F0A" stroke-width="3" stroke-miterlimit="10"/>
<path d="M53.0786 127.779L53.0786 172.014L122.766 172.014L122.766 127.779" stroke="#F84F0A" stroke-width="3" stroke-miterlimit="10"/>
<path d="M255.461 172.014L255.461 184.715L179.489 184.715L179.489 172.014" stroke="#F84F0A" stroke-width="3" stroke-miterlimit="10"/>
<path d="M122.766 172.014L122.766 184.715L53.0786 184.715L53.0786 172.014" stroke="#F84F0A" stroke-width="3" stroke-miterlimit="10"/>
<path d="M299 194L299 220L9.99999 220L10 194" stroke="#F84F0A"/>
<path d="M291 229.163L308 212" stroke="#F84F0A"/>
<path d="M18 228.163L1 211" stroke="#F84F0A"/>
<rect x="125" y="200" width="66" height="32" fill="white"/>
</svg>
